<svg width="24" height="24" viewBox="0 0 24 24" fill="none" xmlns="http://www.w3.org/2000/svg">
<path fill-rule="evenodd" clip-rule="evenodd" d="M16 11C18.7614 11 21 13.2386 21 16C21 18.7614 18.7614 21 16 21C13.2386 21 11 18.7614 11 16C11 13.2386 13.2386 11 16 11ZM14 3C14.5523 3 15 3.44772 15 4V4.999L17 5C18.1046 5 19 5.89543 19 7L19.001 10.8033C18.1182 10.2924 17.0933 10 16 10C12.6863 10 10 12.6863 10 16C10 17.5366 10.5777 18.9384 11.5277 19.9999L5 20C3.89543 20 3 19.1046 3 18V7C3 5.89543 3.89543 5 5 5L7 4.999V4C7 3.48716 7.38604 3.06449 7.88338 3.00673L8 3C8.55228 3 9 3.44772 9 4V4.999H13V4C13 3.48716 13.386 3.06449 13.8834 3.00673L14 3ZM17.624 14.988C17.488 14.988 17.3653 15.0167 17.256 15.074C17.174 15.117 17.1062 15.1724 17.0527 15.2401L17.004 15.312V15.28C17.004 15.1947 16.9773 15.126 16.924 15.074C16.8707 15.022 16.7987 14.996 16.708 14.996C16.6173 14.996 16.5447 15.022 16.49 15.074C16.449 15.113 16.4234 15.1614 16.4131 15.2191L16.408 15.28V17.464C16.408 17.5467 16.4367 17.6133 16.494 17.664C16.5513 17.7147 16.6267 17.74 16.72 17.74C16.808 17.74 16.8787 17.716 16.932 17.668C16.9676 17.636 16.9913 17.5969 17.0031 17.5507L17.012 17.476V16.72C17.0707 16.8187 17.154 16.8953 17.262 16.95C17.37 17.0047 17.4907 17.032 17.624 17.032C17.7947 17.032 17.9453 16.9907 18.076 16.908C18.2067 16.8253 18.3087 16.7073 18.382 16.554C18.4553 16.4007 18.492 16.2227 18.492 16.02C18.492 15.8173 18.4553 15.638 18.382 15.482C18.3087 15.326 18.206 15.2047 18.074 15.118C17.942 15.0313 17.792 14.988 17.624 14.988ZM14.948 14.18H13.944C13.8507 14.18 13.7787 14.2053 13.728 14.256C13.69 14.294 13.6662 14.344 13.6567 14.406L13.652 14.472V16.712C13.652 16.808 13.68 16.884 13.736 16.94C13.792 16.996 13.868 17.024 13.964 17.024C14.0573 17.024 14.1313 16.996 14.186 16.94C14.227 16.898 14.2526 16.8447 14.2629 16.7802L14.268 16.712V15.904H14.592C14.6693 15.904 14.7333 15.9193 14.784 15.95C14.8178 15.9704 14.8504 15.9995 14.8818 16.0371L14.928 16.1L15.456 16.884C15.488 16.9347 15.528 16.972 15.576 16.996C15.624 17.02 15.6733 17.032 15.724 17.032C15.804 17.032 15.874 17.008 15.934 16.96C15.994 16.912 16.024 16.8507 16.024 16.776C16.024 16.7387 16.0151 16.7007 15.9973 16.6622L15.964 16.604L15.66 16.148C15.6013 16.06 15.5407 15.9927 15.478 15.946C15.4153 15.8993 15.344 15.868 15.264 15.852C15.4827 15.8067 15.652 15.712 15.772 15.568C15.892 15.424 15.952 15.244 15.952 15.028C15.952 14.7533 15.8673 14.5433 15.698 14.398C15.5569 14.2769 15.3598 14.2062 15.1066 14.1861L14.948 14.18ZM17.448 15.448C17.5893 15.448 17.6987 15.498 17.776 15.598C17.8533 15.698 17.892 15.8387 17.892 16.02C17.892 16.1987 17.8533 16.3353 17.776 16.43C17.6987 16.5247 17.5893 16.572 17.448 16.572C17.3067 16.572 17.1973 16.5233 17.12 16.426C17.0427 16.3287 17.004 16.1907 17.004 16.012C17.004 15.8307 17.0427 15.6913 17.12 15.594C17.1973 15.4967 17.3067 15.448 17.448 15.448ZM14.856 14.656C15.0347 14.656 15.164 14.6867 15.244 14.748C15.324 14.8093 15.364 14.908 15.364 15.044C15.364 15.1773 15.324 15.2753 15.244 15.338C15.164 15.4007 15.0347 15.432 14.856 15.432H14.26V14.656H14.856Z" fill="#555555"/>
</svg>
