<svg width="24" height="24" viewBox="0 0 24 24" fill="none" xmlns="http://www.w3.org/2000/svg">
<path fill-rule="evenodd" clip-rule="evenodd" d="M16 5C16.5523 5 17 5.44772 17 6H18C19.1046 6 20 6.89543 20 8C20 9.10457 19.1046 10 18 10H17C17 12.4185 15.2828 14.436 13.0012 14.8997L13 18H14C14.5523 18 15 18.4477 15 19V20H9V19C9 18.4477 9.44772 18 10 18H11L10.9998 14.8999C8.71767 14.4366 7 12.4189 7 10H6C4.89543 10 4 9.10457 4 8C4 6.89543 4.89543 6 6 6H7C7 5.44772 7.44772 5 8 5H16ZM12 8L11.3895 9.15968L10.0979 9.38197L11.0121 10.321L10.8244 11.618L12 11.0387L13.1756 11.618L12.9879 10.321L13.9021 9.38197L12.6105 9.15968L12 8ZM7 7H6C5.44772 7 5 7.44772 5 8C5 8.55228 5.44772 9 6 9H7V7ZM18 7H17V9H18C18.5128 9 18.9355 8.61396 18.9933 8.11662L19 8C19 7.44772 18.5523 7 18 7Z" fill="#555555"/>
</svg>
