<svg width="24" height="24" viewBox="0 0 24 24" fill="none" xmlns="http://www.w3.org/2000/svg">
<path fill-rule="evenodd" clip-rule="evenodd" d="M14 19C14 20.1046 13.1046 21 12 21L11.8507 20.9945C10.8159 20.9182 10 20.0544 10 19H14ZM12 4C12.5523 4 13 4.44824 13 5.00116L12.9997 6.10079C14.8955 6.48803 16.4343 7.95653 16.8668 9.90495L18 15.0101L18.5594 16.6828C18.7346 17.2066 18.452 17.7732 17.9283 17.9484C17.826 17.9826 17.7189 18 17.6111 18H6.39313C5.84085 18 5.39313 17.5523 5.39313 17C5.39313 16.8912 5.41088 16.7832 5.44568 16.6801L6 15.0385L7.1358 9.90553C7.56686 7.95745 9.10456 6.4887 10.9995 6.10103L11 5.00116C11 4.44824 11.4477 4 12 4ZM18.9538 9.18338C19.6151 9.86067 19.6151 10.9627 18.9538 11.6401C18.8434 11.7532 18.6987 11.8097 18.554 11.8097C18.4093 11.8097 18.2646 11.7532 18.1542 11.6401C17.9334 11.4139 17.9334 11.0473 18.1542 10.8212C18.261 10.7118 18.3198 10.5664 18.3198 10.4117C18.3198 10.257 18.261 10.1117 18.1542 10.0023C17.9334 9.77613 17.9334 9.40952 18.1542 9.18338C18.375 8.95724 18.733 8.95724 18.9538 9.18338ZM5.55634 9.18338C5.77714 9.40952 5.77714 9.77613 5.55634 10.0023C5.44956 10.1116 5.39072 10.257 5.39072 10.4117C5.39072 10.5664 5.44956 10.7118 5.55634 10.8212C5.77714 11.0473 5.77714 11.4139 5.55634 11.6401C5.44594 11.7532 5.30124 11.8097 5.15654 11.8097C5.01184 11.8097 4.86714 11.7532 4.75678 11.6401C4.09544 10.9628 4.09544 9.86071 4.75678 9.18338C4.97754 8.95724 5.33554 8.95724 5.55634 9.18338ZM20.2302 13.4475C20.0657 13.4475 19.9014 13.39 19.7759 13.2749C19.525 13.0449 19.525 12.6719 19.7759 12.4419C20.3815 11.8866 20.715 11.147 20.715 10.3593C20.715 9.57149 20.3815 8.83186 19.7759 8.27661C19.525 8.04657 19.525 7.67361 19.7759 7.44356C20.0268 7.21352 20.4336 7.21352 20.6845 7.44356C21.5328 8.22132 22 9.25681 22 10.3593C22 11.4617 21.5328 12.4972 20.6845 13.2749C20.559 13.39 20.3946 13.4475 20.2302 13.4475ZM3.55743 13.4475C3.41273 13.4475 3.26803 13.391 3.15767 13.2779C2.41111 12.5133 2 11.4955 2 10.4118C2 9.32806 2.41111 8.31018 3.15763 7.54565C3.37843 7.31951 3.73639 7.31955 3.95719 7.54565C4.17799 7.77179 4.17799 8.1384 3.95719 8.36454C3.42426 8.91034 3.13076 9.63739 3.13076 10.4118C3.13076 11.1861 3.42426 11.9132 3.95719 12.459C4.17799 12.6851 4.17799 13.0517 3.95719 13.2779C3.84683 13.3909 3.70213 13.4475 3.55743 13.4475Z" fill="#555555"/>
</svg>
