<svg width="24" height="24" viewBox="0 0 24 24" fill="none" xmlns="http://www.w3.org/2000/svg">
<path fill-rule="evenodd" clip-rule="evenodd" d="M4 7H16C16.5523 7 17 6.55228 17 6C17 5.44772 16.5523 5 16 5H4C3.44772 5 3 5.44772 3 6C3 6.55228 3.44772 7 4 7ZM4 13H20C20.5523 13 21 12.5523 21 12C21 11.4477 20.5523 11 20 11H4C3.44772 11 3 11.4477 3 12C3 12.5523 3.44772 13 4 13ZM4 19H12C12.5523 19 13 18.5523 13 18C13 17.4477 12.5523 17 12 17H4C3.44772 17 3 17.4477 3 18C3 18.5523 3.44772 19 4 19Z" fill="#555555"/>
</svg>
