<svg width="24" height="24" viewBox="0 0 24 24" fill="none" xmlns="http://www.w3.org/2000/svg">
<path fill-rule="evenodd" clip-rule="evenodd" d="M17.7861 6.38205L21.7861 11.4707C22.0752 11.8384 22.0707 12.3575 21.7753 12.7202L17.7753 17.6315C17.4265 18.0598 16.7967 18.1242 16.3684 17.7754C15.9402 17.4267 15.8758 16.7968 16.2245 16.3685L18.9671 13L4.09912 13C3.58629 13 3.16361 12.614 3.10585 12.1167L3.09912 12C3.09912 11.4478 3.54684 11 4.09912 11L18.8721 11L16.2137 7.61804C15.8724 7.18384 15.9477 6.55517 16.3819 6.21386C16.8161 5.87255 17.4448 5.94785 17.7861 6.38205Z" fill="#555555"/>
</svg>
