<svg width="24" height="24" viewBox="0 0 24 24" fill="none" xmlns="http://www.w3.org/2000/svg">
<path fill-rule="evenodd" clip-rule="evenodd" d="M7.21382 6.38205C7.55512 5.94785 8.1838 5.87255 8.61799 6.21386C9.05219 6.55517 9.12749 7.18384 8.78618 7.61804L6.127 11L20 11C20.5128 11 20.9355 11.3861 20.9933 11.8834L21 12C21 12.5523 20.5523 13 20 13L6.032 13L8.77538 16.3685C9.09732 16.7638 9.06719 17.3309 8.72384 17.6902L8.6315 17.7754C8.20327 18.1242 7.57339 18.0598 7.22462 17.6315L3.22462 12.7202C2.92922 12.3575 2.92473 11.8384 3.21382 11.4707L7.21382 6.38205Z" fill="#555555"/>
</svg>
