<svg width="24" height="24" viewBox="0 0 24 24" fill="none" xmlns="http://www.w3.org/2000/svg">
<path fill-rule="evenodd" clip-rule="evenodd" d="M12.5367 4.15624L20.5889 9.27819C20.7043 9.3516 20.7742 9.47891 20.7742 9.61569C20.7742 9.83661 20.5951 10.0157 20.3742 10.0157H19C19 10.5673 18.5529 11.0144 18.0013 11.0144L18 17.004L19.0013 17.0041C19.5135 17.0041 19.9356 17.3896 19.9933 17.8863L20 18.0028C20.5523 18.0028 21 18.4505 21 19.0028V20.0002H3V19.0028C3 18.4505 3.44772 18.0028 4 18.0028C4 17.4512 4.44714 17.0041 4.99871 17.0041L6 17.004V11.014C5.44714 11.0144 5 10.5673 5 10.0157H3.62587C3.48908 10.0157 3.36178 9.9458 3.28837 9.83038C3.1698 9.64398 3.22478 9.39676 3.41118 9.27819L11.4633 4.15624C11.7908 3.94792 12.2092 3.94792 12.5367 4.15624ZM11 11.014H8V17.004H11V11.014ZM16 11.014H13V17.004H16V11.014ZM12 6.88179C11.4018 6.88179 10.9169 7.34449 10.9169 7.91526C10.9169 8.48604 11.4018 8.94874 12 8.94874C12.5982 8.94874 13.0832 8.48604 13.0832 7.91526C13.0832 7.34449 12.5982 6.88179 12 6.88179Z" fill="#555555"/>
</svg>
