<svg width="24" height="24" viewBox="0 0 24 24" fill="none" xmlns="http://www.w3.org/2000/svg">
<path fill-rule="evenodd" clip-rule="evenodd" d="M19 5.25C19 4.00736 18.0357 3 16.8462 3H7.15385C5.96431 3 5 4.00736 5 5.25V18.75C5 19.9926 5.96431 21 7.15385 21H16.8462C18.0357 21 19 19.9926 19 18.75V12V5.25ZM9.30769 5.25H14.6923C15.7692 5.25 16.3077 5.25 16.3077 6.375C16.3077 7.5 15.7692 7.5 14.6923 7.5H9.30769C8.23077 7.5 7.69231 7.5 7.69231 6.375C7.69231 5.25 8.23077 5.25 9.30769 5.25ZM9.84615 10.875C9.84615 10.3264 9.364 9.75 8.76923 9.75C8.17446 9.75 7.69231 10.2537 7.69231 10.875C7.69231 11.4963 8.17446 12 8.76923 12C9.364 12 9.84615 11.4236 9.84615 10.875ZM12 9.75C12.5948 9.75 13.0769 10.3125 13.0769 10.875C13.0769 11.4375 12.5948 12 12 12C11.4052 12 10.9231 11.4375 10.9231 10.875C10.9231 10.3125 11.4052 9.75 12 9.75ZM15.2308 9.75C15.8255 9.75 16.3077 10.3125 16.3077 10.875C16.3077 11.4375 15.8255 12 15.2308 12C14.636 12 14.1538 11.4375 14.1538 10.875C14.1538 10.3125 14.636 9.75 15.2308 9.75ZM9.84615 17.625C9.84615 17.0764 9.364 16.5 8.76923 16.5C8.17446 16.5 7.69231 17.0037 7.69231 17.625C7.69231 18.2463 8.17446 18.75 8.76923 18.75C9.364 18.75 9.84615 18.1736 9.84615 17.625ZM12 16.5C12.5948 16.5 13.0769 17.0625 13.0769 17.625C13.0769 18.1875 12.5948 18.75 12 18.75C11.4052 18.75 10.9231 18.1875 10.9231 17.625C10.9231 17.0625 11.4052 16.5 12 16.5ZM16.3077 17.625C16.3077 17.0625 15.8255 16.5 15.2308 16.5C14.636 16.5 14.1538 17.0625 14.1538 17.625C14.1538 18.1875 14.636 18.75 15.2308 18.75C15.8255 18.75 16.3077 18.1875 16.3077 17.625ZM15.2308 13.125C15.8255 13.125 16.3077 13.6875 16.3077 14.25C16.3077 14.8125 15.8255 15.375 15.2308 15.375C14.636 15.375 14.1538 14.8125 14.1538 14.25C14.1538 13.6875 14.636 13.125 15.2308 13.125ZM13.0769 14.25C13.0769 13.6875 12.5948 13.125 12 13.125C11.4052 13.125 10.9231 13.6875 10.9231 14.25C10.9231 14.8125 11.4052 15.375 12 15.375C12.5948 15.375 13.0769 14.8125 13.0769 14.25ZM8.76923 13.125C9.364 13.125 9.84615 13.7014 9.84615 14.25C9.84615 14.7986 9.364 15.375 8.76923 15.375C8.17446 15.375 7.69231 14.8713 7.69231 14.25C7.69231 13.6287 8.17446 13.125 8.76923 13.125Z" fill="#555555"/>
</svg>
