<svg width="24" height="24" viewBox="0 0 24 24" fill="none" xmlns="http://www.w3.org/2000/svg">
<path fill-rule="evenodd" clip-rule="evenodd" d="M14.3748 4C14.7721 4 15.1317 4.23519 15.291 4.59918L16.0288 6.28571H19C20.1046 6.28571 21 7.18114 21 8.28571V18C21 19.1046 20.1046 20 19 20H5C3.89543 20 3 19.1046 3 18V8.28571C3 7.18114 3.89543 6.28571 5 6.28571H8.01788L8.75574 4.59918C8.91499 4.23519 9.2746 4 9.6719 4H14.3748ZM12 9C9.79086 9 8 10.7909 8 13C8 15.2091 9.79086 17 12 17C14.2091 17 16 15.2091 16 13C16 10.7909 14.2091 9 12 9ZM18 8C17.4477 8 17 8.44772 17 9C17 9.55228 17.4477 10 18 10C18.5523 10 19 9.55228 19 9C19 8.44772 18.5523 8 18 8Z" fill="#555555"/>
</svg>
