<svg width="24" height="24" viewBox="0 0 24 24" fill="none" xmlns="http://www.w3.org/2000/svg">
<path fill-rule="evenodd" clip-rule="evenodd" d="M14 4C18.4183 4 22 7.58172 22 12C22 16.4183 18.4183 20 14 20C11.8415 20 9.81676 19.1398 8.32536 17.639C7.93606 17.2473 7.93804 16.6141 8.32979 16.2248C8.72153 15.8355 9.3547 15.8375 9.744 16.2292C10.8637 17.356 12.3795 18 14 18C17.3137 18 20 15.3137 20 12C20 8.68629 17.3137 6 14 6C12.3752 6 10.8556 6.64751 9.73525 7.77958C9.34676 8.17213 8.7136 8.17541 8.32105 7.78692C7.92851 7.39843 7.92523 6.76527 8.31372 6.37273C9.80603 4.86485 11.8357 4 14 4ZM6.5302 8.4751C6.82317 8.76792 6.82328 9.24279 6.53046 9.53576L4.806 11.26L9 11.2608C9.41421 11.2608 9.75 11.5966 9.75 12.0108C9.75 12.4251 9.41421 12.7608 9 12.7608L4.814 12.76L6.5302 14.4751C6.82317 14.7679 6.82328 15.2428 6.53046 15.5358C6.23764 15.8287 5.76276 15.8288 5.4698 15.536L2.4698 12.5375C2.17683 12.2446 2.17672 11.7698 2.46954 11.4768L5.46954 8.47535C5.76236 8.18239 6.23724 8.18227 6.5302 8.4751ZM15.7991 11.0149C16.5058 11.0149 17 11.6393 17 12.3991C17 13.1643 16.5058 13.7886 15.8018 13.7886C15.4962 13.7886 15.2784 13.685 15.1243 13.5309V14.7823H14.1784V11.0866H15.0844V11.3231C15.2412 11.1424 15.467 11.0149 15.7991 11.0149ZM12.6579 10C13.6037 10 14.1005 10.4889 14.1005 11.2381C14.1005 11.812 13.7684 12.2238 13.1387 12.3539L14.151 13.7196H12.9607L12.0654 12.3991H12.0096V13.7196H11V10H12.6579ZM15.5573 11.8943C15.2863 11.8943 15.0897 12.1069 15.0897 12.4018C15.0897 12.6967 15.2863 12.9092 15.5573 12.9092C15.8283 12.9092 16.0249 12.6967 16.0249 12.4018C16.0249 12.1069 15.8283 11.8943 15.5573 11.8943ZM12.6472 10.906H12.0096V11.5675H12.6472C12.897 11.5675 13.0803 11.4639 13.0803 11.2381C13.0803 11.0123 12.897 10.906 12.6472 10.906Z" fill="#555555"/>
</svg>
