<svg width="24" height="24" viewBox="0 0 24 24" fill="none" xmlns="http://www.w3.org/2000/svg">
<path fill-rule="evenodd" clip-rule="evenodd" d="M19 6C20.1046 6 21 6.89543 21 8V16C21 17.1046 20.1046 18 19 18H5C3.89543 18 3 17.1046 3 16V8C3 6.89543 3.89543 6 5 6H19ZM19 13.5C17.6193 13.5 16.5 14.6193 16.5 16C16.5 16.2761 16.7239 16.5 17 16.5C17.2761 16.5 17.5 16.2761 17.5 16C17.5 15.1716 18.1716 14.5 19 14.5C19.2761 14.5 19.5 14.2761 19.5 14C19.5 13.7239 19.2761 13.5 19 13.5ZM5 13.5C4.72386 13.5 4.5 13.7239 4.5 14C4.5 14.2761 4.72386 14.5 5 14.5C5.82843 14.5 6.5 15.1716 6.5 16C6.5 16.2761 6.72386 16.5 7 16.5C7.27614 16.5 7.5 16.2761 7.5 16C7.5 14.6193 6.38071 13.5 5 13.5ZM12 10C10.8954 10 10 10.8954 10 12C10 13.1046 10.8954 14 12 14C13.1046 14 14 13.1046 14 12C14 10.8954 13.1046 10 12 10ZM17 7.5C16.7239 7.5 16.5 7.72386 16.5 8C16.5 9.38071 17.6193 10.5 19 10.5C19.2761 10.5 19.5 10.2761 19.5 10C19.5 9.72386 19.2761 9.5 19 9.5C18.1716 9.5 17.5 8.82843 17.5 8C17.5 7.72386 17.2761 7.5 17 7.5ZM7 7.5C6.72386 7.5 6.5 7.72386 6.5 8C6.5 8.82843 5.82843 9.5 5 9.5C4.72386 9.5 4.5 9.72386 4.5 10C4.5 10.2761 4.72386 10.5 5 10.5C6.38071 10.5 7.5 9.38071 7.5 8C7.5 7.72386 7.27614 7.5 7 7.5Z" fill="#555555"/>
</svg>
