<svg width="24" height="24" viewBox="0 0 24 24" fill="none" xmlns="http://www.w3.org/2000/svg">
<path fill-rule="evenodd" clip-rule="evenodd" d="M13.9999 4C18.4182 4 21.9999 7.58172 21.9999 12C21.9999 16.4183 18.4182 20 13.9999 20C11.8413 20 9.81663 19.1398 8.32524 17.639C7.93594 17.2473 7.93792 16.6141 8.32967 16.2248C8.72141 15.8355 9.35458 15.8375 9.74387 16.2292C10.8636 17.356 12.3794 18 13.9999 18C17.3136 18 19.9999 15.3137 19.9999 12C19.9999 8.68629 17.3136 6 13.9999 6C12.3751 6 10.8555 6.64751 9.73513 7.77958C9.34663 8.17213 8.71348 8.17541 8.32093 7.78692C7.92839 7.39843 7.9251 6.76527 8.3136 6.37273C9.80591 4.86485 11.8356 4 13.9999 4ZM5.46968 8.4751C5.76264 8.18227 6.23751 8.18239 6.53034 8.47535L9.53034 11.4768C9.64767 11.5942 9.71797 11.7408 9.74124 11.8932C9.74672 11.9313 9.74988 11.9707 9.74988 12.0108L9.74557 11.9265C9.74754 11.9449 9.74884 11.9633 9.74946 11.9818L9.74988 12.0108C9.74988 12.0207 9.74969 12.0304 9.74932 12.0402C9.74858 12.0533 9.74762 12.0669 9.74628 12.0806C9.74466 12.1023 9.7418 12.1233 9.7381 12.144C9.73514 12.1559 9.73254 12.1683 9.72962 12.1806C9.72508 12.2044 9.71851 12.2275 9.7109 12.2501C9.70715 12.2572 9.70452 12.2645 9.70177 12.2718C9.65885 12.3912 9.58529 12.4959 9.4912 12.5775L6.53008 15.536C6.23712 15.8288 5.76224 15.8287 5.46942 15.5358C5.1766 15.2428 5.17671 14.7679 5.46968 14.4751L7.18512 12.76L3.09912 12.7608C2.71943 12.7608 2.40563 12.4787 2.35597 12.1126L2.34912 12.0108C2.34912 11.5966 2.68491 11.2608 3.09912 11.2608L7.19312 11.26L5.46942 9.53576C5.20322 9.26943 5.17911 8.85276 5.39704 8.5592L5.46968 8.4751ZM15.799 11.0149C16.5057 11.0149 16.9999 11.6393 16.9999 12.3991C16.9999 13.1643 16.5057 13.7886 15.8016 13.7886C15.4961 13.7886 15.2783 13.685 15.1242 13.5309V14.7823H14.1783V11.0866H15.0843V11.3231C15.2411 11.1424 15.4669 11.0149 15.799 11.0149ZM12.6577 10C13.6036 10 14.1004 10.4889 14.1004 11.2381C14.1004 11.812 13.7683 12.2238 13.1386 12.3539L14.1509 13.7196H12.9606L12.0653 12.3991H12.0095V13.7196H10.9999V10H12.6577ZM15.5572 11.8943C15.2862 11.8943 15.0896 12.1069 15.0896 12.4018C15.0896 12.6967 15.2862 12.9092 15.5572 12.9092C15.8282 12.9092 16.0248 12.6967 16.0248 12.4018C16.0248 12.1069 15.8282 11.8943 15.5572 11.8943ZM12.6471 10.906H12.0095V11.5675H12.6471C12.8969 11.5675 13.0802 11.4639 13.0802 11.2381C13.0802 11.0123 12.8969 10.906 12.6471 10.906Z" fill="#555555"/>
</svg>
