<svg width="24" height="24" viewBox="0 0 24 24" fill="none" xmlns="http://www.w3.org/2000/svg">
<path fill-rule="evenodd" clip-rule="evenodd" d="M20 5C20.5523 5 21 5.44772 21 6C21 6.51284 20.614 6.93551 20.1166 6.99327L20 7H4C3.44772 7 3 6.55228 3 6C3 5.48716 3.38604 5.06449 3.88338 5.00673L4 5H20ZM17 11C17.5523 11 18 11.4477 18 12C18 12.5128 17.614 12.9355 17.1166 12.9933L17 13H7C6.44772 13 6 12.5523 6 12C6 11.4872 6.38604 11.0645 6.88338 11.0067L7 11H17ZM14 17C14.5523 17 15 17.4477 15 18C15 18.5128 14.614 18.9355 14.1166 18.9933L14 19H10C9.44772 19 9 18.5523 9 18C9 17.4872 9.38604 17.0645 9.88338 17.0067L10 17H14Z" fill="#555555"/>
</svg>
