<svg width="24" height="24" viewBox="0 0 24 24" fill="none" xmlns="http://www.w3.org/2000/svg">
<path fill-rule="evenodd" clip-rule="evenodd" d="M17.6569 6.34313C18.0474 6.73366 18.0474 7.36682 17.6569 7.75735L13.4142 11.9986L17.6569 16.2426C18.0195 16.6053 18.0454 17.1771 17.7346 17.5696L17.6569 17.6568C17.2663 18.0474 16.6332 18.0474 16.2426 17.6568L11.9993 13.4135L7.75736 17.6568C7.39473 18.0195 6.82288 18.0454 6.43037 17.7345L6.34315 17.6568C5.95262 17.2663 5.95262 16.6332 6.34315 16.2426L10.5851 11.9993L6.34315 7.75735C5.98052 7.39472 5.95461 6.82287 6.26544 6.43035L6.34315 6.34313C6.73367 5.95261 7.36684 5.95261 7.75736 6.34313L11.9993 10.5851L16.2426 6.34313C16.6053 5.9805 17.1771 5.9546 17.5696 6.26543L17.6569 6.34313Z" fill="#555555"/>
</svg>
