<svg width="24" height="24" viewBox="0 0 24 24" fill="none" xmlns="http://www.w3.org/2000/svg">
<rect x="4" y="4" width="16" height="16" rx="8" fill="#EF3636"/>
<path d="M9.36234 16V14.86L12.0983 11.944C12.3463 11.68 12.5423 11.436 12.6863 11.212C12.8383 10.988 12.9503 10.772 13.0223 10.564C13.0943 10.356 13.1303 10.148 13.1303 9.94C13.1303 9.54 13.0023 9.236 12.7463 9.028C12.4983 8.82 12.1343 8.716 11.6543 8.716C11.2783 8.716 10.9103 8.788 10.5503 8.932C10.1983 9.068 9.85834 9.284 9.53034 9.58L9.01434 8.428C9.35034 8.124 9.77034 7.88 10.2743 7.696C10.7783 7.512 11.3023 7.42 11.8463 7.42C12.4543 7.42 12.9663 7.512 13.3823 7.696C13.7983 7.88 14.1143 8.148 14.3303 8.5C14.5463 8.852 14.6543 9.28 14.6543 9.784C14.6543 10.04 14.6223 10.292 14.5583 10.54C14.5023 10.78 14.4103 11.02 14.2823 11.26C14.1623 11.5 14.0063 11.748 13.8143 12.004C13.6303 12.252 13.4063 12.512 13.1423 12.784L10.8863 15.136V14.728H14.9783V16H9.36234Z" fill="white"/>
</svg>
