<svg width="24" height="24" viewBox="0 0 24 24" fill="none" xmlns="http://www.w3.org/2000/svg">
<path fill-rule="evenodd" clip-rule="evenodd" d="M12 4C16.9706 4 21 8.02944 21 13C21 14.6097 20.576 16.1598 19.7831 17.5219C19.5052 17.9992 18.893 18.1609 18.4157 17.8831C17.9384 17.6052 17.7767 16.993 18.0546 16.5157C18.5883 15.5988 18.9067 14.5734 18.9824 13.5006L18 13.5C17.7239 13.5 17.5 13.2761 17.5 13C17.5 12.7239 17.7239 12.5 18 12.5L18.9825 12.5006C18.738 9.03297 15.9679 6.26252 12.5004 6.01761L12.5 7C12.5 7.27614 12.2761 7.5 12 7.5C11.7239 7.5 11.5 7.27614 11.5 7L11.5006 6.01754C8.03264 6.26199 5.26199 9.03264 5.01754 12.5006L6.00244 12.5C6.27858 12.5 6.50244 12.7239 6.50244 13C6.50244 13.2761 6.27858 13.5 6.00244 13.5L5.01761 13.5007C5.09322 14.5722 5.41097 15.5965 5.94363 16.5127C6.22123 16.9901 6.05922 17.6022 5.58178 17.8798C5.10433 18.1574 4.49224 17.9954 4.21464 17.5179C3.42321 16.1568 3 14.6081 3 13C3 8.02944 7.02944 4 12 4ZM11.9974 9L13.0177 15.996L12.9998 15.995C13 16.5128 12.614 16.9355 12.1166 16.9933L12 17C11.4477 17 11 16.5523 11 16L10.9888 15.996L11.9974 9Z" fill="#555555"/>
</svg>
