<svg width="24" height="24" viewBox="0 0 24 24" fill="none" xmlns="http://www.w3.org/2000/svg">
<path fill-rule="evenodd" clip-rule="evenodd" d="M15.3902 14.4277L20.3751 7.07476C20.9268 6.26102 20.7143 5.15413 19.9006 4.60245C19.8825 4.59019 19.8642 4.57827 19.8457 4.56668C18.9737 4.02131 17.8262 4.26848 17.2561 5.12444L12.3117 12.5483L12.3872 15.1499C12.3952 15.426 12.6254 15.6432 12.9014 15.6352C12.975 15.6331 13.0473 15.6147 13.1129 15.5815L15.3902 14.4277Z" fill="#555555"/>
<path d="M3.55086 10.2341C6.2187 8.89303 8.04273 8.68842 8.87528 10.1953C9.44411 11.2248 8.9622 12.0203 6.53874 15.3222C6.48787 15.3915 6.48787 15.3915 6.43703 15.4607C6.15037 15.8508 5.90668 16.1834 5.69768 16.4707L5.67827 16.4974L5.75774 16.4235C5.90349 16.2839 6.18198 15.9896 6.47958 15.6734L6.77935 15.3548C7.12669 14.9861 7.4485 14.6478 7.56435 14.551C8.87128 13.4592 9.78381 14.4641 9.78381 16.061C9.78381 17.1154 10.5425 17.4736 12.8246 17.0669C13.3683 16.97 13.8876 17.3323 13.9845 17.876C14.0814 18.4197 13.7191 18.939 13.1754 19.0359C10.3497 19.5395 8.4457 18.9233 7.92674 17.1459L7.90827 17.0754L7.80169 17.1893C7.58938 17.414 7.38392 17.6285 7.22814 17.7829L7.14097 17.868C6.25341 18.7179 5.36103 19.346 4.36279 19.7346C3.46069 20.0858 2.71352 20.0898 2.32865 19.2247C2.0859 18.679 2.22991 18.2015 2.60349 17.5089C2.98095 16.809 3.36646 16.2616 4.82541 14.2764C4.87595 14.2076 4.87595 14.2076 4.9264 14.1388C5.77369 12.9844 6.24743 12.3082 6.60464 11.7186C6.70526 11.5525 6.78978 11.4031 6.8576 11.2723L6.91327 11.1594L6.87527 11.1632L6.77375 11.1736C6.24674 11.2327 5.46087 11.5125 4.44913 12.0211C3.95568 12.2691 3.35458 12.0702 3.10653 11.5767C2.85848 11.0833 3.05741 10.4822 3.55086 10.2341Z" fill="#555555"/>
</svg>
