<svg width="24" height="24" viewBox="0 0 24 24" fill="none" xmlns="http://www.w3.org/2000/svg">
<path fill-rule="evenodd" clip-rule="evenodd" d="M17.1496 4.29327C17.5364 3.90587 18.1676 3.90174 18.5595 4.28405C18.9514 4.66636 18.9556 5.29034 18.5688 5.67774L13.5329 10.721C13.8216 11.0677 13.9952 11.5136 13.9952 12C13.9952 13.1046 13.0998 14 11.9952 14C11.5102 14 11.0655 13.8273 10.7192 13.5401L4.56282 19.7067C4.17605 20.0941 3.54481 20.0983 3.15289 19.7159C2.76098 19.3336 2.7568 18.7097 3.14357 18.3223L5.79405 15.6683C4.00748 14.2114 2.99918 12.517 3.00008 12C3.00178 11.0381 6.49522 6 11.9952 6C13.0516 6 14.0343 6.19462 14.9326 6.51424L17.1496 4.29327ZM17.4844 7.86354C19.7148 9.45737 20.9962 11.5615 20.9952 12C20.9936 12.7247 17.4869 18 11.9887 18C10.6165 18 9.36929 17.6862 8.27013 17.2003L9.98718 15.4602C10.5773 15.8034 11.2633 16 11.9952 16C14.2043 16 15.9952 14.2091 15.9952 12C15.9952 11.249 15.7882 10.5463 15.4282 9.94589L17.4844 7.86354ZM11.9952 8C9.78607 8 7.99521 9.79086 7.99521 12C7.99521 12.4402 8.06632 12.8638 8.19768 13.2599L10.1033 11.3498C10.3027 10.7693 10.7619 10.3095 11.342 10.1091L13.2486 8.2003C12.8543 8.07033 12.433 8 11.9952 8Z" fill="#555555"/>
</svg>
