<svg width="24" height="24" viewBox="0 0 24 24" fill="none" xmlns="http://www.w3.org/2000/svg">
<path fill-rule="evenodd" clip-rule="evenodd" d="M16.6492 13.3149C17.0386 13.6439 17.1137 14.2068 16.8427 14.6233L16.7677 14.7242L11.7642 20.6463C11.4134 21.0616 10.8025 21.1158 10.3857 20.79L10.2931 20.708L7.29282 17.707C6.90233 17.3165 6.9024 16.6833 7.29297 16.2928C7.65349 15.9324 8.22073 15.9047 8.61299 16.2098L8.70718 16.293L10.938 18.524L15.2399 13.4334C15.5963 13.0116 16.2273 12.9585 16.6492 13.3149ZM12.0531 4.00003C15.0574 4.00003 17.5907 6.18577 18.2144 9.11732L18.2588 9.34992L18.3456 9.36028C20.3136 9.64045 21.8537 11.3226 21.9821 13.4088L21.9861 13.5273L21.9942 13.5758L22 13.6943C22 15.3812 21.164 16.921 19.8133 17.8126C19.39 18.0921 18.828 17.9635 18.558 17.5254C18.288 17.0873 18.4123 16.5056 18.8356 16.2262C19.6166 15.7106 20.1164 14.8476 20.1759 13.8875L20.1779 13.7955L20.1746 13.7832L20.1722 13.6454C20.1488 12.2885 19.0774 11.2006 17.7633 11.201L17.5806 11.2038L16.5802 11.2699L16.5387 10.3108C16.432 7.84367 14.4526 5.8818 12.0504 5.88179C11.0642 5.8788 10.1054 6.2152 9.32423 6.83863C8.66352 7.36465 8.15715 8.06726 7.85838 8.86826L7.77503 9.11143L7.60291 9.66116L7.05131 9.75085C5.25 10.0437 3.90799 11.6054 3.82252 13.4709L3.81819 13.6896C3.81819 14.7506 4.35132 15.7121 5.21119 16.2564C5.6395 16.5275 5.77434 17.1067 5.51236 17.5499C5.25038 17.9932 4.69079 18.1328 4.26248 17.8616C2.92893 17.0174 2.07651 15.5481 2.00491 13.9135L2 13.6661C1.99701 11.0163 3.71391 8.72836 6.1324 8.03446L6.23335 8.00637C6.62708 7.04353 7.23134 6.19527 8.00087 5.52589L8.2148 5.34782C9.31481 4.46997 10.6661 3.99586 12.0531 4.00003Z" fill="#555555"/>
</svg>
