<svg width="24" height="24" viewBox="0 0 24 24" fill="none" xmlns="http://www.w3.org/2000/svg">
<path fill-rule="evenodd" clip-rule="evenodd" d="M21 15C21.5128 15 21.9355 15.386 21.9933 15.8834L22 16V19.9963C22 20.5092 21.614 20.9319 21.1166 20.9896L21 20.9963H3C2.48716 20.9963 2.06449 20.6103 2.00673 20.113L2 19.9963V16C2 15.4477 2.44772 15 3 15C3.51284 15 3.93551 15.386 3.99327 15.8834L4 16V18.996H20V16C20 15.4872 20.386 15.0645 20.8834 15.0067L21 15ZM12 3C12.5523 3 13 3.44772 13 4L13 13.968L16.3685 11.2246C16.7638 10.9027 17.3309 10.9328 17.6901 11.2762L17.7754 11.3685C18.1242 11.7967 18.0597 12.4266 17.6315 12.7754L12.7201 16.7754C12.3574 17.0708 11.8384 17.0753 11.4706 16.7862L6.38201 12.7862C5.94782 12.4449 5.87251 11.8162 6.21382 11.382C6.55513 10.9478 7.1838 10.8725 7.618 11.2138L11 13.873L11 4C11 3.48716 11.386 3.06449 11.8834 3.00673L12 3Z" fill="#555555"/>
</svg>
