<svg width="24" height="24" viewBox="0 0 24 24" fill="none" xmlns="http://www.w3.org/2000/svg">
<path fill-rule="evenodd" clip-rule="evenodd" d="M12.4737 2.98706C12.9969 2.98706 13.4211 3.41121 13.4211 3.93443C13.4211 4.45765 12.9969 4.8818 12.4737 4.8818H5.84211C5.31889 4.8818 4.89474 5.30595 4.89474 5.82917V18.145C4.89474 18.6682 5.31889 19.0923 5.84211 19.0923H18.1579C18.6811 19.0923 19.1053 18.6682 19.1053 18.145V11.5134C19.1053 10.9902 19.5294 10.566 20.0526 10.566C20.5758 10.566 21 10.9902 21 11.5134V18.145C21 19.7146 19.7275 20.9871 18.1579 20.9871H5.84211C4.27245 20.9871 3 19.7146 3 18.145V5.82917C3 4.25951 4.27245 2.98706 5.84211 2.98706H12.4737ZM16.4679 4.50282C17.2979 3.67286 18.6435 3.67286 19.4735 4.50282C19.4771 4.50638 19.4806 4.50996 19.4841 4.51354C20.3023 5.34347 20.2927 6.67948 19.4628 7.49761L11 15.8401L7.16113 16.8027L8.03343 12.9373L16.4679 4.50282Z" fill="#555555"/>
</svg>
