<svg width="24" height="24" viewBox="0 0 24 24" fill="none" xmlns="http://www.w3.org/2000/svg">
<path fill-rule="evenodd" clip-rule="evenodd" d="M19 4C20.1046 4 21 4.89543 21 6V18C21 19.1046 20.1046 20 19 20H5C3.89543 20 3 19.1046 3 18V6C3 4.89543 3.89543 4 5 4H19ZM18 16H16C15.4477 16 15 16.4477 15 17C15 17.5523 15.4477 18 16 18H18C18.5523 18 19 17.5523 19 17C19 16.4477 18.5523 16 18 16ZM18 12H6C5.44772 12 5 12.4477 5 13C5 13.5523 5.44772 14 6 14H18C18.5523 14 19 13.5523 19 13C19 12.4477 18.5523 12 18 12ZM10 9H6C5.44772 9 5 9.44772 5 10C5 10.5523 5.44772 11 6 11H10C10.5523 11 11 10.5523 11 10C11 9.44772 10.5523 9 10 9ZM18 9H14C13.4477 9 13 9.44772 13 10C13 10.5523 13.4477 11 14 11H18C18.5523 11 19 10.5523 19 10C19 9.44772 18.5523 9 18 9ZM6.5 6H5.5C5.22386 6 5 6.22386 5 6.5C5 6.77614 5.22386 7 5.5 7H6.5C6.77614 7 7 6.77614 7 6.5C7 6.22386 6.77614 6 6.5 6ZM9.5 6H8.5C8.22386 6 8 6.22386 8 6.5C8 6.77614 8.22386 7 8.5 7H9.5C9.77614 7 10 6.77614 10 6.5C10 6.22386 9.77614 6 9.5 6ZM12.5 6H11.5C11.2239 6 11 6.22386 11 6.5C11 6.77614 11.2239 7 11.5 7H12.5C12.7761 7 13 6.77614 13 6.5C13 6.22386 12.7761 6 12.5 6Z" fill="#555555"/>
</svg>
