<svg width="24" height="24" viewBox="0 0 24 24" fill="none" xmlns="http://www.w3.org/2000/svg">
<path fill-rule="evenodd" clip-rule="evenodd" d="M18 6C19.1046 6 20 6.89543 20 8V16C20 17.1046 19.1046 18 18 18H6C4.89543 18 4 17.1046 4 16V8C4 6.89543 4.89543 6 6 6H18ZM18.416 8.22261C18.2628 7.99286 17.9524 7.9308 17.7226 8.084L12.8333 11.3443C12.3295 11.6802 11.6731 11.6803 11.1692 11.3445L6.27731 8.08395C6.04753 7.93079 5.7371 7.99291 5.58395 8.22269L5.5408 8.30195C5.44667 8.51952 5.51844 8.77992 5.72269 8.91605L9.38995 11.3599L6.64372 14.1492C6.44997 14.346 6.45243 14.6625 6.6492 14.8563L6.71889 14.9136C6.9148 15.0471 7.18406 15.0257 7.35628 14.8508L10.2359 11.9239L10.6146 12.1766L10.7749 12.275C11.5901 12.7341 12.6009 12.7012 13.3881 12.1763L13.7309 11.9469L16.647 14.8541C16.8426 15.0491 17.1592 15.0486 17.3541 14.853L17.4119 14.7837C17.5465 14.5886 17.5268 14.3192 17.353 14.1459L14.5799 11.3809L18.2774 8.916C18.5071 8.7628 18.5692 8.45235 18.416 8.22261Z" fill="#555555"/>
</svg>
