<svg width="24" height="24" viewBox="0 0 24 24" fill="none" xmlns="http://www.w3.org/2000/svg">
<path fill-rule="evenodd" clip-rule="evenodd" d="M18 6C19.1046 6 20 6.89543 20 8V16C20 17.1046 19.1046 18 18 18H6C4.89543 18 4 17.1046 4 16V8C4 6.89543 4.89543 6 6 6H18ZM17.7226 8.084L12.8333 11.3443C12.3295 11.6802 11.6731 11.6803 11.1692 11.3445L6.27731 8.08395C6.04753 7.93079 5.7371 7.99291 5.58395 8.22269C5.43079 8.45247 5.49291 8.7629 5.72269 8.91605L10.6146 12.1766C11.4544 12.7363 12.5484 12.7362 13.3881 12.1763L18.2774 8.916C18.5071 8.7628 18.5692 8.45235 18.416 8.22261C18.2628 7.99286 17.9524 7.9308 17.7226 8.084Z" fill="#555555"/>
</svg>
