<svg width="24" height="24" viewBox="0 0 24 24" fill="none" xmlns="http://www.w3.org/2000/svg">
<path fill-rule="evenodd" clip-rule="evenodd" d="M11.5321 4.25362C12.0202 3.99521 12.6253 4.18142 12.8837 4.66952L20.2228 18.5324C20.2992 18.6766 20.3391 18.8372 20.3391 19.0003C20.3391 19.5526 19.8913 20.0003 19.3391 20.0003H4.66084C4.49774 20.0003 4.33711 19.9604 4.19296 19.8841C3.70486 19.6257 3.51865 19.0205 3.77705 18.5324L11.1162 4.66952C11.21 4.49233 11.3549 4.34742 11.5321 4.25362ZM11.9999 16.0001C11.4477 16.0001 10.9999 16.4478 10.9999 17.0001C10.9999 17.5524 11.4477 18.0001 11.9999 18.0001C12.5522 18.0001 12.9999 17.5524 12.9999 17.0001C12.9999 16.4478 12.5522 16.0001 11.9999 16.0001ZM11.9999 8.00012C11.4477 8.00012 10.9999 8.44784 10.9999 9.00012V14.0352C10.9999 14.5874 11.4477 15.0352 11.9999 15.0352C12.5522 15.0352 12.9999 14.5874 12.9999 14.0352V9.00012C12.9999 8.44784 12.5522 8.00012 11.9999 8.00012Z" fill="#555555"/>
</svg>
