<svg width="24" height="24" viewBox="0 0 24 24" fill="none" xmlns="http://www.w3.org/2000/svg">
<path fill-rule="evenodd" clip-rule="evenodd" d="M18.0027 4C19.1072 4 20.0026 4.89543 20.0026 6V19C20.0026 20.1046 19.1072 20 18.0027 20C17.4581 20 17.0166 19.5589 17.016 19.0144L17.0038 8.02098C17.0031 7.46913 16.5556 7.02209 16.0038 7.02209H5.00265C4.45037 7.02209 4.00265 6.57438 4.00265 6.02209V6C4.00265 4.89543 3.89808 4 5.00265 4H18.0027ZM14.0027 9C14.5549 9 15.0027 9.44772 15.0027 10V19C15.0027 19.5523 14.5549 20 14.0027 20H5.00265C4.45037 20 4.00265 19.5523 4.00265 19V10C4.00265 9.44772 4.45037 9 5.00265 9H14.0027ZM6.50265 14C6.22651 14 6.00265 14.2239 6.00265 14.5V17.5C6.00265 17.7761 6.22651 18 6.50265 18H9.50265C9.77879 18 10.0027 17.7761 10.0027 17.5L9.99459 17.4101C9.95226 17.1769 9.74811 17 9.50265 17L7.69565 16.999L9.85258 14.8642C10.0488 14.6699 10.0503 14.3534 9.85604 14.1572L9.78707 14.099C9.59286 13.963 9.32335 13.981 9.14894 14.1537L7.00165 16.279L7.00265 14.5C7.00265 14.2239 6.77879 14 6.50265 14Z" fill="#555555"/>
</svg>
