<svg width="24" height="24" viewBox="0 0 24 24" fill="none" xmlns="http://www.w3.org/2000/svg">
<path fill-rule="evenodd" clip-rule="evenodd" d="M18 4C19.1046 4 20 4.89543 20 6V18C20 19.1046 19.1046 20 18 20H14.0128C13.4611 20 13.0137 19.5533 13.0128 19.0016L13.0016 12.0205C13.0007 11.4688 12.5533 11.0221 12.0016 11.0221H5C4.44772 11.0221 4 10.5744 4 10.0221V6C4 4.89543 4.89543 4 6 4H18ZM10 13C10.5523 13 11 13.4477 11 14V19C11 19.5523 10.5523 20 10 20H5C4.44772 20 4 19.5523 4 19V14C4 13.4477 4.44772 13 5 13H10ZM17.5 6H14.5C14.2239 6 14 6.22386 14 6.5L14.0081 6.58988C14.0504 6.82312 14.2545 7 14.5 7H16.306L14.1501 9.13575C13.9539 9.33006 13.9523 9.64663 14.1466 9.84285L14.2156 9.90104C14.4098 10.037 14.6793 10.019 14.8537 9.8463L17 7.72V9.5C17 9.77614 17.2239 10 17.5 10C17.7761 10 18 9.77614 18 9.5V6.5C18 6.22386 17.7761 6 17.5 6Z" fill="#555555"/>
</svg>
