<svg width="24" height="24" viewBox="0 0 24 24" fill="none" xmlns="http://www.w3.org/2000/svg">
<path fill-rule="evenodd" clip-rule="evenodd" d="M4 15.0081C4.51284 15.0081 4.93551 15.3941 4.99327 15.8915L5 16.0081V17.9877C5 18.5087 5.38572 18.935 5.87912 18.9932L5.99476 19H8C8.55228 19 9 19.4477 9 20C9 20.5128 8.61396 20.9355 8.11662 20.9933L8 21H5.99476C4.39798 21 3.09604 19.7442 3.00508 18.1645L3 17.9877V16.0081C3 15.4558 3.44772 15.0081 4 15.0081ZM20 14.9718C20.5128 14.9718 20.9355 15.3578 20.9933 15.8552L21 15.9718V17.9716C21 19.5676 19.7507 20.8714 18.1762 20.9625L18 20.9676H16.0004C15.4481 20.9676 15.0004 20.5199 15.0004 19.9676C15.0004 19.4548 15.3864 19.0321 15.8837 18.9743L16.0004 18.9676H18C18.5133 18.9676 18.9356 18.5827 18.9933 18.0877L19 17.9716V15.9718C19 15.4195 19.4477 14.9718 20 14.9718ZM15.6201 13.6171C15.8534 13.9593 15.7651 14.4259 15.4228 14.6592C13.4416 16.0099 10.8596 16.065 8.82861 14.8214L8.58095 14.6616C8.23742 14.4301 8.14655 13.964 8.37799 13.6205C8.58838 13.3082 8.99272 13.2047 9.32259 13.3623L9.41905 13.4175L9.44336 13.4339C10.9965 14.4803 13.0305 14.4747 14.5779 13.4198C14.9202 13.1865 15.3868 13.2748 15.6201 13.6171ZM9 8C9.55228 8 10 8.44772 10 9C10 9.55228 9.55228 10 9 10C8.44772 10 8 9.55228 8 9C8 8.44772 8.44772 8 9 8ZM15 8C15.5523 8 16 8.44772 16 9C16 9.55228 15.5523 10 15 10C14.4477 10 14 9.55228 14 9C14 8.44772 14.4477 8 15 8ZM17.9912 3C19.5926 3 20.9033 4.24782 20.9949 5.82328L21 5.99963V8C21 8.55228 20.5523 9 20 9C19.4872 9 19.0645 8.61396 19.0067 8.11662L19 8V5.99963C19 5.48794 18.6115 5.0646 18.1091 5.00674L17.9912 5H16C15.4477 5 15 4.55228 15 4C15 3.48716 15.386 3.06449 15.8834 3.00673L16 3H17.9912ZM8 3C8.55228 3 9 3.44772 9 4C9 4.55228 8.55228 5 8 5H5.99738C5.44535 5 5 5.44298 5 5.98673V7.9919C5 8.54418 4.55228 8.9919 4 8.9919C3.44772 8.9919 3 8.54418 3 7.9919V5.98673C3 4.33601 4.34316 3 5.99738 3H8Z" fill="#555555"/>
</svg>
