<svg width="24" height="24" viewBox="0 0 24 24" fill="none" xmlns="http://www.w3.org/2000/svg">
<path fill-rule="evenodd" clip-rule="evenodd" d="M8 4C8.74025 4 9.38657 4.40217 9.73239 4.99993L19 5C19.5523 5 20 5.44772 20 6C20 6.51284 19.614 6.93551 19.1166 6.99327L19 7L9.73181 7.00108C9.38585 7.59828 8.73984 8 8 8C7.26016 8 6.61415 7.59828 6.26819 7.00108L5 7C4.44772 7 4 6.55228 4 6C4 5.48716 4.38604 5.06449 4.88338 5.00673L5 5L6.26761 4.99993C6.61343 4.40217 7.25975 4 8 4ZM16 10C16.7403 10 17.3866 10.4022 17.7324 10.9999L19 11C19.5523 11 20 11.4477 20 12C20 12.5128 19.614 12.9355 19.1166 12.9933L19 13L17.7318 13.0011C17.3858 13.5983 16.7398 14 16 14C15.2602 14 14.6142 13.5983 14.2682 13.0011L5 13C4.44772 13 4 12.5523 4 12C4 11.4872 4.38604 11.0645 4.88338 11.0067L5 11L14.2676 10.9999C14.6134 10.4022 15.2597 10 16 10ZM10 16C10.7403 16 11.3866 16.4022 11.7324 16.9999L19 17C19.5523 17 20 17.4477 20 18C20 18.5128 19.614 18.9355 19.1166 18.9933L19 19L11.7318 19.0011C11.3858 19.5983 10.7398 20 10 20C9.26016 20 8.61415 19.5983 8.26819 19.0011L5 19C4.44772 19 4 18.5523 4 18C4 17.4872 4.38604 17.0645 4.88338 17.0067L5 17L8.26761 16.9999C8.61343 16.4022 9.25975 16 10 16Z" fill="#555555"/>
</svg>
