<svg width="24" height="24" viewBox="0 0 24 24" fill="none" xmlns="http://www.w3.org/2000/svg">
<path fill-rule="evenodd" clip-rule="evenodd" d="M12.2921 3C13.8386 4.54082 14.613 6.07928 14.6154 7.61538C14.6176 9.07497 13.9228 10.5367 12.5309 12.0005L12.9694 16.0479C15.9466 16.3353 19 17.8908 19 20.0356C19 20.5676 18.5687 20.9988 18.0368 20.9988H5.99478C5.44538 20.9988 5 20.5534 5 20.004C5 17.8109 8.36209 16.1866 11.4577 16.015L12.0027 11.9154C10.6698 10.48 10.0022 9.04669 10 7.61538C9.99766 6.07928 10.7617 4.54082 12.2921 3ZM9.79907 12.3511C10.4352 12.7816 10.8579 13.5304 11.0674 14.5975C9.99765 14.8058 9.14471 14.6947 8.50863 14.2643C7.87254 13.8338 7.45135 13.0826 7.24504 12.0108C8.31164 11.8072 9.16298 11.9206 9.79907 12.3511ZM18.4009 9.62098C18.404 11.2583 17.9988 12.4849 17.1854 13.3008C16.372 14.1167 15.1479 14.5243 13.5131 14.5238C13.5161 12.8926 13.9243 11.669 14.7377 10.8531C15.5511 10.0372 16.7722 9.6265 18.4009 9.62098Z" fill="#555555"/>
</svg>
