<svg width="24" height="24" viewBox="0 0 24 24" fill="none" xmlns="http://www.w3.org/2000/svg">
<path fill-rule="evenodd" clip-rule="evenodd" d="M6 13H18C18.5523 13 19 12.5523 19 12C19 11.4477 18.5523 11 18 11H6C5.44772 11 5 11.4477 5 12C5 12.5523 5.44772 13 6 13ZM6 17H18C18.5523 17 19 16.5523 19 16C19 15.4477 18.5523 15 18 15H6C5.44772 15 5 15.4477 5 16C5 16.5523 5.44772 17 6 17ZM6 9H18C18.5523 9 19 8.55228 19 8C19 7.44772 18.5523 7 18 7H6C5.44772 7 5 7.44772 5 8C5 8.55228 5.44772 9 6 9Z" fill="#555555"/>
</svg>
