<svg width="24" height="24" viewBox="0 0 24 24" fill="none" xmlns="http://www.w3.org/2000/svg">
<path fill-rule="evenodd" clip-rule="evenodd" d="M15 13C17.2091 13 19 14.7909 19 17C19 19.2091 17.2091 21 15 21C12.7909 21 11 19.2091 11 17C11 14.7909 12.7909 13 15 13ZM16 5C17.1046 5 18 5.89543 18 7L18.0012 13.0005C17.1653 12.3723 16.1261 12 15 12C12.2386 12 10 14.2386 10 17C10 18.1261 10.3723 19.1653 11.0005 20.0012L7 20C5.89543 20 5 19.1046 5 18V7C5 5.89543 5.89543 5 7 5H16ZM15 14.9955C14.7239 14.9955 14.5 15.2193 14.5 15.4955V17.9746C14.5 18.2508 14.7239 18.4746 15 18.4746H17.0248C17.3009 18.4746 17.5248 18.2508 17.5248 17.9746C17.5248 17.6985 17.3009 17.4746 17.0248 17.4746H15.5V15.4955C15.5 15.2193 15.2761 14.9955 15 14.9955ZM9.53558 13.4959H8C7.72386 13.4959 7.5 13.7198 7.5 13.9959C7.5 14.2721 7.72386 14.4959 8 14.4959H9.53558C9.81173 14.4959 10.0356 14.2721 10.0356 13.9959C10.0356 13.7198 9.81173 13.4959 9.53558 13.4959ZM15 10.4959H8C7.72386 10.4959 7.5 10.7198 7.5 10.9959C7.5 11.2721 7.72386 11.4959 8 11.4959H15C15.2761 11.4959 15.5 11.2721 15.5 10.9959C15.5 10.7198 15.2761 10.4959 15 10.4959ZM15 7.49591H8C7.72386 7.49591 7.5 7.71977 7.5 7.99591C7.5 8.27205 7.72386 8.49591 8 8.49591H15C15.2761 8.49591 15.5 8.27205 15.5 7.99591C15.5 7.71977 15.2761 7.49591 15 7.49591Z" fill="#555555"/>
</svg>
