<svg width="24" height="24" viewBox="0 0 24 24" fill="none" xmlns="http://www.w3.org/2000/svg">
<path fill-rule="evenodd" clip-rule="evenodd" d="M20 12.2133V19.1111C20 19.602 19.602 20 19.1111 20H15.5556C15.0646 20 14.6667 19.602 14.6667 19.1111V14.4644C14.6667 14.219 14.4677 14.02 14.2222 14.02H9.77778C9.53232 14.02 9.33333 14.219 9.33333 14.4644V19.1111C9.33333 19.602 8.93536 20 8.44444 20H4.88889C4.39797 20 4 19.602 4 19.1111V12.2133C4.00062 11.5063 4.28198 10.8285 4.78222 10.3289L10.8533 4.25778C11.0189 4.09356 11.2424 4.00098 11.4756 4H12.5244C12.7576 4.00098 12.9811 4.09356 13.1467 4.25778L19.2178 10.3289C19.718 10.8285 19.9994 11.5063 20 12.2133Z" fill="#555555"/>
</svg>
