<svg width="24" height="24" viewBox="0 0 24 24" fill="none" xmlns="http://www.w3.org/2000/svg">
<path fill-rule="evenodd" clip-rule="evenodd" d="M18 6C19.1046 6 20 6.89543 20 8V16C20 17.1046 19.1046 18 18 18H6C4.89543 18 4 17.1046 4 16V8C4 6.89543 4.89543 6 6 6H18ZM11.9236 10.4612C10.7887 9.67497 9.2312 9.95766 8.44495 11.0926L5.58899 15.2153C5.43174 15.4423 5.48828 15.7538 5.71527 15.911C5.94227 16.0683 6.25376 16.0117 6.41101 15.7847L9.26697 11.6621C9.73872 10.9811 10.6732 10.8115 11.3542 11.2832C11.5022 11.3858 11.6305 11.5141 11.733 11.6621L14.589 15.7847C14.7462 16.0117 15.0577 16.0683 15.2847 15.911L15.354 15.8532C15.5216 15.6856 15.5508 15.417 15.411 15.2153L14.064 13.271L14.8277 12.3442C15.0032 12.131 15.3183 12.1004 15.5315 12.2759C15.5663 12.3045 15.5971 12.3377 15.623 12.3746L18.0191 15.7873C18.1778 16.0133 18.4897 16.0679 18.7157 15.9092C18.9417 15.7505 18.9962 15.4387 18.8375 15.2127L16.4414 11.8C16.3637 11.6893 16.2713 11.5897 16.1669 11.5037L16.0436 11.4123C15.4107 10.9909 14.5491 11.1091 14.0555 11.7088L13.472 12.416L12.5551 11.0926C12.3842 10.846 12.1703 10.6321 11.9236 10.4612ZM14 8C13.4477 8 13 8.44772 13 9C13 9.55228 13.4477 10 14 10C14.5523 10 15 9.55228 15 9C15 8.44772 14.5523 8 14 8Z" fill="#555555"/>
</svg>
