<svg width="24" height="24" viewBox="0 0 24 24" fill="none" xmlns="http://www.w3.org/2000/svg">
<path fill-rule="evenodd" clip-rule="evenodd" d="M8.60111 16.0876C8.9331 16.0876 9.20223 16.3567 9.20223 16.6887C9.20223 18.3486 10.5479 19.6942 12.2078 19.6942C13.0143 19.6942 13.7689 19.3759 14.329 18.818C14.3656 18.7815 14.4058 18.7507 14.4484 18.7256L13.3988 18.4065L13.3079 18.3705C13.0484 18.2424 12.9124 17.9416 12.9998 17.6559C13.0968 17.3384 13.4329 17.1597 13.7503 17.2568L16.0497 17.9598L16.1407 17.9958C16.4002 18.1239 16.5362 18.4247 16.4488 18.7104L15.7454 21.0113L15.7094 21.1022C15.5813 21.3617 15.2805 21.4977 14.9948 21.4104L14.9039 21.3743C14.6443 21.2463 14.5083 20.9455 14.5957 20.6598L14.796 20.0066C14.0659 20.5771 13.1616 20.8965 12.2078 20.8965C9.88389 20.8965 8 19.0126 8 16.6887C8 16.3567 8.26913 16.0876 8.60111 16.0876ZM12.0531 4.00003C15.0574 4.00003 17.5907 6.18577 18.2144 9.11732L18.2588 9.34992L18.3456 9.36028C20.3136 9.64045 21.8537 11.3226 21.9821 13.4088L21.9861 13.5273L21.9942 13.5758L22 13.6943C22 15.3812 21.164 16.921 19.8133 17.8126C19.39 18.0921 18.828 17.9635 18.558 17.5254C18.288 17.0873 18.4123 16.5056 18.8356 16.2262C19.6166 15.7106 20.1164 14.8476 20.1759 13.8875L20.1779 13.7955L20.1746 13.7832L20.1722 13.6454C20.1488 12.2885 19.0774 11.2006 17.7633 11.201L17.5806 11.2038L16.5802 11.2699L16.5387 10.3108C16.432 7.84367 14.4526 5.8818 12.0504 5.88179C11.0642 5.8788 10.1054 6.2152 9.32423 6.83863C8.66352 7.36465 8.15715 8.06726 7.85838 8.86826L7.77503 9.11143L7.60291 9.66116L7.05131 9.75085C5.25 10.0437 3.90799 11.6054 3.82252 13.4709L3.81819 13.6896C3.81819 14.7506 4.35132 15.7121 5.21119 16.2564C5.6395 16.5275 5.77434 17.1067 5.51236 17.5499C5.25038 17.9932 4.69079 18.1328 4.26248 17.8616C2.92893 17.0174 2.07651 15.5481 2.00491 13.9135L2 13.6661C1.99701 11.0163 3.71391 8.72836 6.1324 8.03446L6.23335 8.00637C6.62708 7.04353 7.23134 6.19527 8.00087 5.52589L8.2148 5.34782C9.31481 4.46997 10.6661 3.99586 12.0531 4.00003ZM8.84156 12C9.14035 12 9.38822 12.218 9.4348 12.5036L9.44267 12.6011L9.44157 13.5178C10.1997 12.8556 11.1747 12.4809 12.2078 12.4809C14.5317 12.4809 16.4156 14.3648 16.4156 16.6887C16.4156 17.0207 16.1465 17.2898 15.8145 17.2898C15.4825 17.2898 15.2134 17.0207 15.2134 16.6887C15.2134 15.0288 13.8677 13.6831 12.2078 13.6831C11.4798 13.6831 10.7942 13.9425 10.2559 14.403L11.2476 14.4045C11.5463 14.4045 11.7942 14.6224 11.8408 14.9081L11.8487 15.0056C11.8487 15.3044 11.6307 15.5522 11.3451 15.5988L11.2476 15.6067H8.84156C8.54277 15.6067 8.2949 15.3887 8.24831 15.1031L8.24045 15.0056V12.6011C8.24045 12.2691 8.50957 12 8.84156 12Z" fill="#555555"/>
</svg>
