<svg width="24" height="24" viewBox="0 0 24 24" fill="none" xmlns="http://www.w3.org/2000/svg">
<path fill-rule="evenodd" clip-rule="evenodd" d="M18.7782 3H14.2593C13.0322 3 12.0375 3.99289 12.0375 5.22185V8.43521L10.4485 10.5539C10.3286 10.7136 10.3093 10.9275 10.3986 11.1061C10.488 11.2848 10.6705 11.3977 10.8703 11.3977H18.7782C20.0033 11.3977 21 10.4009 21 9.17583V5.22185C21 3.99673 20.0033 3 18.7782 3ZM16.5187 9.70317C16.2277 9.70317 15.9913 9.46683 15.9913 9.17583C15.9913 8.88469 16.2277 8.64848 16.5187 8.64848C16.8098 8.64848 17.046 8.88469 17.046 9.17583C17.046 9.46683 16.8098 9.70317 16.5187 9.70317ZM16.5187 8.00867C16.2275 8.00867 15.9913 7.77246 15.9913 7.48132C15.9913 7.19005 16.2275 6.95398 16.5187 6.95398C16.8509 6.95398 17.121 6.68372 17.121 6.35165C17.121 6.1907 17.0585 6.03964 16.9448 5.92607C16.8307 5.81181 16.6796 5.74919 16.5187 5.74919C16.1863 5.74919 15.9164 6.01918 15.9164 6.35097C15.9164 6.64224 15.6803 6.87859 15.389 6.87859C15.0979 6.87859 14.8617 6.64279 14.8617 6.35165C14.8617 5.43842 15.6048 4.6945 16.5181 4.6945C16.9617 4.6945 17.3778 4.86713 17.6905 5.18024C18.0033 5.49252 18.1757 5.90877 18.1757 6.35165C18.1758 7.2653 17.4325 8.00867 16.5187 8.00867ZM13.1297 12.6023H5.22185C3.99673 12.6023 3 13.5991 3 14.8242V18.7782C3 20.0033 3.99673 21 5.22185 21H9.74066C10.9678 21 11.9625 20.0071 11.9625 18.7782V15.5648L13.5515 13.4461C13.6714 13.2864 13.6907 13.0725 13.6014 12.8939C13.512 12.7152 13.3295 12.6023 13.1297 12.6023ZM7.48132 18.4582H5.78668C5.49554 18.4582 5.25934 18.2221 5.25934 17.9308C5.25934 17.6396 5.49554 17.4035 5.78668 17.4035H7.48132C7.77246 17.4035 8.00867 17.6396 8.00867 17.9308C8.00867 18.2221 7.77246 18.4582 7.48132 18.4582ZM9.17583 16.1988H5.78668C5.49554 16.1988 5.25934 15.9628 5.25934 15.6715C5.25934 15.3802 5.49554 15.1441 5.78668 15.1441H9.17583C9.46696 15.1441 9.70317 15.3802 9.70317 15.6715C9.70317 15.9628 9.46696 16.1988 9.17583 16.1988ZM3.52748 11.3977H9.17569C9.46696 11.3977 9.70303 11.1616 9.70303 10.8703V10.1342C9.70303 8.28429 8.20422 6.78438 6.35481 6.78273C7.39796 6.78108 8.24309 5.935 8.24309 4.89143C8.24309 3.84691 7.39632 3 6.35165 3C5.30699 3 4.46022 3.84691 4.46022 4.89143C4.46022 5.935 5.30534 6.78108 6.3485 6.78273C4.49895 6.78438 3.00014 8.28429 3.00014 10.1342V10.8703C3.00014 11.1616 3.23621 11.3977 3.52748 11.3977ZM17.6516 16.3851C18.6948 16.3834 19.5399 15.5373 19.5399 14.4938C19.5399 13.4491 18.6931 12.6023 17.6486 12.6023C16.604 12.6023 15.7572 13.4491 15.7572 14.4938C15.7572 15.5373 16.6023 16.3834 17.6455 16.3851C15.7959 16.3867 14.297 17.8865 14.297 19.7364V20.4727C14.297 20.7639 14.5332 21 14.8243 21H20.4727C20.7639 21 21 20.7639 21 20.4727V19.7366C21 17.8866 19.5012 16.3867 17.6516 16.3851Z" fill="#555555"/>
</svg>
