<svg width="24" height="24" viewBox="0 0 24 24" fill="none" xmlns="http://www.w3.org/2000/svg">
<path fill-rule="evenodd" clip-rule="evenodd" d="M13.6085 14.237C13.735 14.0825 13.9407 14.0169 14.1372 14.0522C15.0519 14.2163 17.7365 14.4496 19.716 12.0853C20.8461 10.7354 21.3216 8.94436 20.9017 7.10723C20.4817 5.27009 18.8766 4.05777 18.3966 3.75624C17.5424 3.21971 16.6978 2.90843 14.9099 3.06486C14.1246 3.13356 12.2884 3.67742 11.2505 4.91711C9.26348 7.29046 9.94377 9.92462 10.2519 10.7935C10.317 10.9771 10.2887 11.1846 10.1635 11.3338L4.00422 18.6741C3.92866 18.7641 3.88724 18.8779 3.88724 18.9955L3.88724 20.5C3.88724 20.7761 4.1111 21 4.38724 21L6.82732 21C7.10346 21 7.32732 20.7761 7.32732 20.5L7.32732 19.6678C7.32732 19.3916 7.55118 19.1678 7.82732 19.1678L9.07465 19.1678C9.3508 19.1678 9.57465 18.9439 9.57465 18.6678L9.57465 17.3103C9.57465 17.0342 9.79851 16.8103 10.0747 16.8103L11.2667 16.8103C11.4167 16.8103 11.5588 16.743 11.6537 16.6269L13.6085 14.237ZM15.0694 10.5878L17.3937 7.84318C17.3937 7.84318 17.7956 7.36858 17.1553 6.82637C16.4548 6.23319 16.0529 6.70779 16.0529 6.70779L13.7287 9.4524C13.7287 9.4524 13.1875 10.0915 13.8906 10.6815C14.5334 11.2208 15.0694 10.5878 15.0694 10.5878Z" fill="#555555"/>
</svg>
