<svg width="24" height="24" viewBox="0 0 24 24" fill="none" xmlns="http://www.w3.org/2000/svg">
<path d="M11.6284 3.0716C11.8669 2.97616 12.1329 2.97613 12.3714 3.07152C14.3058 3.8453 16.2133 4.57095 18.0099 5.2274L19.3999 5.72902L20.3251 6.05431C20.7289 6.19312 21 6.57301 21 7C21 12.6377 18.1444 17.2781 12.5366 20.8439C12.2062 21.0539 11.7836 21.0519 11.4553 20.8386C5.85321 17.1998 3 12.5633 3 7C3 6.57292 3.27123 6.19298 3.67514 6.05424L4.92547 5.61305L5.62118 5.36213L6.89849 4.8935C8.42459 4.32775 10.0174 3.71638 11.6284 3.0716ZM12 8.00964C11.4477 8.00964 11 8.45736 11 9.00964V10.9996L9 11L8.88338 11.0067C8.38604 11.0645 8 11.4872 8 12C8 12.5523 8.44772 13 9 13L11 12.9996V14.9805L11.0067 15.0971C11.0645 15.5944 11.4872 15.9805 12 15.9805C12.5523 15.9805 13 15.5328 13 14.9805V12.9996L15.0017 13L15.1183 12.9933C15.6157 12.9355 16.0017 12.5128 16.0017 12C16.0017 11.4477 15.554 11 15.0017 11L13 10.9996V9.00964L12.9933 8.89302C12.9355 8.39568 12.5128 8.00964 12 8.00964Z" fill="#555555"/>
</svg>
