<svg width="24" height="24" viewBox="0 0 24 24" fill="none" xmlns="http://www.w3.org/2000/svg">
<path d="M4.08107 15.0097C6.04748 15.5462 8.96287 15.556 10.9369 15.0332C11.0934 14.9917 11.2514 15.0978 11.2914 15.2768C11.2917 15.2831 11.2937 15.2873 11.2946 15.2917C11.5277 16.3715 11.7604 17.451 11.9928 18.5309C12.0319 18.7101 11.9072 18.9022 11.7136 18.9542C11.1368 19.1096 10.5554 19.232 9.9711 19.3215C9.77606 19.3511 9.63134 19.5203 9.64819 19.7046L9.82018 21.5169C9.83809 21.7011 9.67492 21.8732 9.45526 21.8967C8.14888 22.0387 6.83381 22.0343 5.52809 21.8834C5.30856 21.8574 5.14632 21.6848 5.16515 21.5007C5.22547 20.8968 5.28578 20.2934 5.34623 19.6898C5.36401 19.5057 5.2202 19.3355 5.02516 19.3044C4.44138 19.2109 3.86062 19.0847 3.2846 18.9253C3.09127 18.8719 2.96749 18.6791 3.00752 18.5002L3.72537 15.2509C3.76619 15.0722 3.92501 14.9664 4.08107 15.0097ZM19.5 2C20.3284 2 21 2.67157 21 3.5V15.5C21 16.3284 20.3284 17 19.5 17L12.8771 17.0004C12.6571 15.9786 12.4368 14.957 12.2162 13.9353C12.2152 13.9303 12.213 13.9257 12.2115 13.9206C12.1682 13.7198 11.9926 13.6019 11.8188 13.648C11.3562 13.7705 10.8471 13.8667 10.3112 13.9366C10.7494 13.7069 11.1621 13.4081 11.5315 13.0396C13.4864 11.0892 13.4899 7.92345 11.5396 5.96857C10.5629 4.98959 9.28135 4.49994 7.99973 4.5L8 3.5C8 2.67157 8.67157 2 9.5 2H19.5ZM4.32166 6.31443C6.08107 4.55898 8.9303 4.56231 10.6856 6.32171C12.4409 8.08111 12.4377 10.9303 10.6783 12.6856C8.91893 14.4409 6.06969 14.4377 4.31438 12.6783C2.55907 10.919 2.56226 8.06973 4.32166 6.31443ZM19.625 9.96458H14.375C14.1679 9.96458 14 10.2044 14 10.5003C14 10.7962 14.1679 11.036 14.375 11.036H19.625C19.8321 11.036 20 10.7962 20 10.5003C20 10.2044 19.8321 9.96458 19.625 9.96458ZM19.625 6.96458H14.375C14.1679 6.96458 14 7.20443 14 7.50029C14 7.79616 14.1679 8.03601 14.375 8.03601H19.625C19.8321 8.03601 20 7.79616 20 7.50029C20 7.20443 19.8321 6.96458 19.625 6.96458ZM19.625 3.96458H14.375C14.1679 3.96458 14 4.20443 14 4.50029C14 4.79616 14.1679 5.03601 14.375 5.03601H19.625C19.8321 5.03601 20 4.79616 20 4.50029C20 4.20443 19.8321 3.96458 19.625 3.96458Z" fill="#555555"/>
</svg>
