<svg width="24" height="24" viewBox="0 0 24 24" fill="none" xmlns="http://www.w3.org/2000/svg">
<circle cx="12" cy="12" r="4" stroke="#555555" stroke-width="2"/>
<path fill-rule="evenodd" clip-rule="evenodd" d="M12 1C11.4477 1 11 1.44772 11 2V4C11 4.55228 11.4477 5 12 5C12.5523 5 13 4.55228 13 4V2C13 1.44772 12.5523 1 12 1ZM12 19C11.4477 19 11 19.4477 11 20V22C11 22.5523 11.4477 23 12 23C12.5523 23 13 22.5523 13 22V20C13 19.4477 12.5523 19 12 19Z" fill="#555555"/>
<path fill-rule="evenodd" clip-rule="evenodd" d="M23 12C23 11.4477 22.5523 11 22 11L20 11C19.4477 11 19 11.4477 19 12C19 12.5523 19.4477 13 20 13L22 13C22.5523 13 23 12.5523 23 12ZM5 12C5 11.4477 4.55228 11 4 11L2 11C1.44772 11 1 11.4477 1 12C1 12.5523 1.44772 13 2 13L4 13C4.55228 13 5 12.5523 5 12Z" fill="#555555"/>
<path fill-rule="evenodd" clip-rule="evenodd" d="M18.7782 18.7782C19.1688 18.3876 19.1688 17.7545 18.7782 17.364L18.0711 16.6568C17.6806 16.2663 17.0474 16.2663 16.6569 16.6568C16.2664 17.0474 16.2664 17.6805 16.6569 18.0711L17.364 18.7782C17.7545 19.1687 18.3877 19.1687 18.7782 18.7782ZM7.34322 7.34312C7.73374 6.9526 7.73374 6.31943 7.34322 5.92891L6.63611 5.2218C6.24559 4.83128 5.61242 4.83128 5.2219 5.2218C4.83137 5.61233 4.83137 6.24549 5.2219 6.63602L5.929 7.34312C6.31953 7.73365 6.95269 7.73365 7.34322 7.34312Z" fill="#555555"/>
<path fill-rule="evenodd" clip-rule="evenodd" d="M5.22185 18.7781C5.61237 19.1686 6.24554 19.1686 6.63606 18.7781L7.34317 18.071C7.73369 17.6805 7.73369 17.0473 7.34317 16.6568C6.95264 16.2663 6.31948 16.2663 5.92895 16.6568L5.22185 17.3639C4.83132 17.7544 4.83132 18.3876 5.22185 18.7781ZM16.6569 7.34306C17.0474 7.73359 17.6806 7.73359 18.0711 7.34306L18.7782 6.63596C19.1687 6.24543 19.1687 5.61227 18.7782 5.22174C18.3877 4.83122 17.7545 4.83122 17.364 5.22174L16.6569 5.92885C16.2664 6.31938 16.2664 6.95254 16.6569 7.34306Z" fill="#555555"/>
</svg>
