<svg width="24" height="24" viewBox="0 0 24 24" fill="none" xmlns="http://www.w3.org/2000/svg">
<path fill-rule="evenodd" clip-rule="evenodd" d="M12 4C14.2091 4 16 5.79086 16 8H18C19.1046 8 20 8.89543 20 10V18C20 19.1046 19.1046 20 18 20H6C4.89543 20 4 19.1046 4 18V10C4 8.89543 4.89543 8 6 8H8C8 5.79086 9.79086 4 12 4ZM12 12C11.4477 12 11 12.4477 11 13V15C11 15.5523 11.4477 16 12 16C12.5523 16 13 15.5523 13 15V13C13 12.4477 12.5523 12 12 12ZM12 6C10.8954 6 10 6.89543 10 8H14C14 6.89543 13.1046 6 12 6Z" fill="#555555"/>
</svg>
