<svg width="24" height="24" viewBox="0 0 24 24" fill="none" xmlns="http://www.w3.org/2000/svg">
<path fill-rule="evenodd" clip-rule="evenodd" d="M13 4C13.5523 4 14 4.44772 14 5C14 5.51284 13.614 5.93551 13.1166 5.99327L13 6H6C5.48716 6 5.06449 6.38604 5.00673 6.88338L5 7V17C5 17.5128 5.38604 17.9355 5.88338 17.9933L6 18H13C13.5523 18 14 18.4477 14 19C14 19.5128 13.614 19.9355 13.1166 19.9933L13 20H6C4.40232 20 3.09634 18.7511 3.00509 17.1763L3 17V7C3 5.40232 4.24892 4.09634 5.82373 4.00509L6 4H13ZM16.1554 7.71519L16.2426 7.79289L19.7782 11.3284C20.1408 11.6911 20.1667 12.2629 19.8559 12.6554L19.7782 12.7426L16.2426 16.2782C15.8521 16.6687 15.219 16.6687 14.8284 16.2782C14.4658 15.9155 14.4399 15.3437 14.7507 14.9512L14.8284 14.864L16.691 13H11C10.4477 13 10 12.5523 10 12C10 11.4872 10.386 11.0645 10.8834 11.0067L11 11H16.621L14.8284 9.20711C14.4658 8.84448 14.4399 8.27263 14.7507 7.88011L14.8284 7.79289C15.1911 7.43026 15.7629 7.40436 16.1554 7.71519Z" fill="#555555"/>
</svg>
