<svg width="24" height="24" viewBox="0 0 24 24" fill="none" xmlns="http://www.w3.org/2000/svg">
<path fill-rule="evenodd" clip-rule="evenodd" d="M15.5 11C18.5376 11 21 13.4624 21 16.5C21 19.5376 18.5376 22 15.5 22C12.4624 22 10 19.5376 10 16.5C10 13.4624 12.4624 11 15.5 11ZM12.9233 16.0462C12.6895 16.0462 12.5 16.2467 12.5 16.4942C12.5 18.226 13.8267 19.6299 15.4632 19.6299C16.1455 19.6299 16.7918 19.3843 17.3101 18.9465L17.1683 19.4063C17.1068 19.6076 17.2112 19.822 17.4051 19.9156L17.473 19.9421C17.6859 20.0072 17.9074 19.9144 17.9995 19.7322L18.0251 19.6683L18.5205 18.048C18.582 17.8468 18.4777 17.6324 18.2837 17.5387L18.2159 17.5122L16.5023 16.9883C16.2657 16.916 16.0185 17.0386 15.9501 17.2621C15.8886 17.4634 15.9929 17.6778 16.1869 17.7714L16.2548 17.7979L17.015 18.03L16.957 18.081C16.5626 18.4968 16.0311 18.734 15.4632 18.734C14.2942 18.734 13.3466 17.7312 13.3466 16.4942C13.3466 16.2467 13.1571 16.0462 12.9233 16.0462ZM3 14C4.2199 14.6104 6.27876 14.9413 9.17659 14.9929C9.06084 15.4761 9 15.9809 9 16.5C9 17.0126 9.05934 17.5114 9.17154 17.9898C5.69617 17.9018 3 17.2684 3 16.5V14ZM13.0926 13C12.8588 13 12.6693 13.2006 12.6693 13.448V15.2398L12.6749 15.3125C12.7077 15.5254 12.8822 15.6878 13.0926 15.6878H14.787L14.8556 15.6819C15.0568 15.6472 15.2103 15.4625 15.2103 15.2398L15.2047 15.1672C15.1719 14.9543 14.9974 14.7919 14.787 14.7919L14.0887 14.7908C14.4677 14.4476 14.9506 14.2543 15.4632 14.2543C16.6321 14.2543 17.5797 15.2571 17.5797 16.4942C17.5797 16.7416 17.7693 16.9421 18.003 16.9421C18.2368 16.9421 18.4264 16.7416 18.4264 16.4942C18.4264 14.7623 17.0997 13.3584 15.4632 13.3584C14.7355 13.3584 14.0488 13.6377 13.5149 14.1314L13.5159 13.448L13.5104 13.3753C13.4776 13.1625 13.303 13 13.0926 13ZM3 10C4.33244 10.6667 6.66577 11 10 11L12.035 10.9996C10.9103 11.7096 10.0185 12.755 9.50008 13.9954C5.86723 13.9413 3 13.2924 3 12.5V10ZM17 6V8.5C17 9.32843 13.866 10 10 10C6.13401 10 3 9.32843 3 8.5V6C4.33244 6.66667 6.66577 7 10 7C13.3342 7 15.6676 6.66667 17 6ZM10 3C13.866 3 17 3.67157 17 4.5C17 5.32843 13.866 6 10 6C6.13401 6 3 5.32843 3 4.5C3 3.67157 6.13401 3 10 3Z" fill="#555555"/>
</svg>
