<svg width="24" height="24" viewBox="0 0 24 24" fill="none" xmlns="http://www.w3.org/2000/svg">
<path fill-rule="evenodd" clip-rule="evenodd" d="M12 4C15.3137 4 18 6.6266 18 9.86667C18 10.8415 17.7568 11.7608 17.3265 12.5698C16.6908 13.7651 15.046 16.0737 12.3922 19.4956C12.3659 19.5278 12.3362 19.5572 12.3033 19.5826C12.0846 19.7512 11.7706 19.7106 11.602 19.4918C8.95347 16.0721 7.3104 13.766 6.67468 12.5721C6.24364 11.7626 6 10.8424 6 9.86667C6 6.6266 8.68629 4 12 4ZM12 8C10.8954 8 10 8.89543 10 10C10 11.1046 10.8954 12 12 12C13.1046 12 14 11.1046 14 10C14 8.89543 13.1046 8 12 8Z" fill="#555555"/>
</svg>
