<svg width="24" height="24" viewBox="0 0 24 24" fill="none" xmlns="http://www.w3.org/2000/svg">
<path fill-rule="evenodd" clip-rule="evenodd" d="M17.0714 3C19.2411 3 21 4.75888 21 6.92857V13.0714C21 15.2411 19.2411 17 17.0714 17H6.92857C4.75888 17 3 15.2411 3 13.0714V6.92857C3 4.75888 4.75888 3 6.92857 3H17.0714ZM17.0714 5H6.92857C5.86345 5 5 5.86345 5 6.92857V13.0714C5 14.1365 5.86345 15 6.92857 15H17.0714C18.1365 15 19 14.1365 19 13.0714V6.92857C19 5.86345 18.1365 5 17.0714 5ZM8.50132 11C9.70512 11 11 11.7451 11 12.7204C11 12.8748 10.8748 13 10.7204 13H6.27037C6.12105 13 6 12.879 6 12.7296C6 11.7107 7.29376 11 8.50132 11ZM17 10C17.5523 10 18 10.4477 18 11C18 11.5523 17.5523 12 17 12H13C12.4477 12 12 11.5523 12 11C12 10.4477 12.4477 10 13 10H17ZM8.5 7C9.32843 7 10 7.67157 10 8.5C10 9.32843 9.32843 10 8.5 10C7.67157 10 7 9.32843 7 8.5C7 7.67157 7.67157 7 8.5 7ZM16 7C16.5523 7 17 7.44772 17 8C17 8.55228 16.5523 9 16 9H13C12.4477 9 12 8.55228 12 8C12 7.44772 12.4477 7 13 7H16ZM14.0357 18C14.5683 18 15 18.4317 15 18.9643L14.9993 19H16.8214C17.354 19 17.7857 19.4317 17.7857 19.9643V20.0357C17.7857 20.5683 17.354 21 16.8214 21H7.17857C6.64601 21 6.21429 20.5683 6.21429 20.0357V19.9643C6.21429 19.4317 6.64601 19 7.17857 19H8.99929L9 18.9643C9 18.4317 9.43173 18 9.96429 18H14.0357Z" fill="#555555"/>
</svg>
