<svg width="24" height="24" viewBox="0 0 24 24" fill="none" xmlns="http://www.w3.org/2000/svg">
<path fill-rule="evenodd" clip-rule="evenodd" d="M14.0002 4C18.4185 4 22.0002 7.58172 22.0002 12C22.0002 16.4183 18.4185 20 14.0002 20C11.8416 20 9.81693 19.1398 8.32553 17.639C7.93624 17.2473 7.93822 16.6141 8.32996 16.2248C8.72171 15.8355 9.35487 15.8375 9.74417 16.2292C10.8639 17.356 12.3797 18 14.0002 18C17.3139 18 20.0002 15.3137 20.0002 12C20.0002 8.68629 17.3139 6 14.0002 6C12.3754 6 10.8558 6.64751 9.73542 7.77958C9.34693 8.17213 8.71377 8.17541 8.32123 7.78692C7.92868 7.39843 7.9254 6.76527 8.31389 6.37273C9.8062 4.86485 11.8359 4 14.0002 4ZM15.7993 11.0149C16.506 11.0149 17.0002 11.6393 17.0002 12.3991C17.0002 13.1643 16.506 13.7886 15.8019 13.7886C15.4964 13.7886 15.2786 13.685 15.1245 13.5309V14.7823H14.1786V11.0866H15.0846V11.3231C15.2414 11.1424 15.4672 11.0149 15.7993 11.0149ZM12.658 10C13.6039 10 14.1007 10.4889 14.1007 11.2381C14.1007 11.812 13.7686 12.2238 13.1389 12.3539L14.1512 13.7196H12.9609L12.0656 12.3991H12.0098V13.7196H11.0002V10H12.658ZM15.5575 11.8943C15.2865 11.8943 15.0899 12.1069 15.0899 12.4018C15.0899 12.6967 15.2865 12.9092 15.5575 12.9092C15.8285 12.9092 16.0251 12.6967 16.0251 12.4018C16.0251 12.1069 15.8285 11.8943 15.5575 11.8943ZM12.6474 10.906H12.0098V11.5675H12.6474C12.8971 11.5675 13.0805 11.4639 13.0805 11.2381C13.0805 11.0123 12.8971 10.906 12.6474 10.906Z" fill="#555555"/>
<path fill-rule="evenodd" clip-rule="evenodd" d="M6.24409 11.8281C7.11997 11.8281 7.83002 11.1181 7.83002 10.2422C7.83002 9.36629 7.11997 8.65625 6.24409 8.65625C5.36821 8.65625 4.65817 9.36629 4.65817 10.2422C4.65817 11.1181 5.36821 11.8281 6.24409 11.8281ZM9.3182 14.612C9.3182 13.2586 7.72512 12.2246 6.24409 12.2246C4.75845 12.2246 3.16675 13.2109 3.16675 14.6249C3.16675 14.8321 3.33473 15.0001 3.54196 15.0001H8.93015C9.14447 15.0001 9.3182 14.8263 9.3182 14.612Z" fill="#555555"/>
</svg>
