<svg width="24" height="24" viewBox="0 0 24 24" fill="none" xmlns="http://www.w3.org/2000/svg">
<path fill-rule="evenodd" clip-rule="evenodd" d="M11.9975 4C12.5825 4 13.0567 4.44772 13.0567 5L13.0567 6.10546C15.0736 6.51217 16.7183 8.05954 17.2037 10.1241L18.3524 15.0101L18.939 16.6661C19.1234 17.1867 18.8509 17.7582 18.3303 17.9426C18.2231 17.9806 18.1101 18 17.9964 18H6.00317C5.45089 18 5.00317 17.5523 5.00317 17C5.00317 16.8852 5.02293 16.7713 5.06158 16.6633L5.64266 15.0385L6.79424 10.1248C7.27806 8.06043 8.92166 6.51268 10.9378 6.10563L10.9384 5C10.9384 4.44772 11.4126 4 11.9975 4ZM9.87923 19C9.87923 20.1046 10.8276 21 11.9975 21C13.1674 21 14.1158 20.1046 14.1158 19" fill="#555555"/>
</svg>
