<svg width="24" height="24" viewBox="0 0 24 24" fill="none" xmlns="http://www.w3.org/2000/svg">
<path d="M12 18.5C12.4142 18.5 12.75 18.8358 12.75 19.25C12.75 19.6642 12.4142 20 12 20C11.5858 20 11.25 19.6642 11.25 19.25C11.25 18.8358 11.5858 18.5 12 18.5ZM12 11C13.6569 11 15 12.3431 15 14C15 15.3974 14.0445 16.5717 12.7512 16.9052L12.75 17.0044C12.75 17.4187 12.4142 17.7544 12 17.7544C11.5858 17.7544 11.25 17.4187 11.25 17.0044V16.25C11.25 15.8358 11.5858 15.5 12 15.5L12.1119 15.4959C12.8881 15.4386 13.5 14.7908 13.5 14C13.5 13.1716 12.8284 12.5 12 12.5C11.1716 12.5 10.5 13.1716 10.5 14C10.5 14.4142 10.1642 14.75 9.75 14.75C9.33579 14.75 9 14.4142 9 14C9 12.3431 10.3431 11 12 11ZM12.0531 3.00003C15.0574 3.00003 17.5907 5.18577 18.2144 8.11732L18.2588 8.34992L18.3456 8.36028C20.3136 8.64045 21.8537 10.3226 21.9821 12.4088L21.9861 12.5273L21.9942 12.5758L22 12.6943C22 14.3812 21.164 15.921 19.8133 16.8126C19.39 17.0921 18.828 16.9635 18.558 16.5254C18.288 16.0873 18.4123 15.5056 18.8356 15.2262C19.6166 14.7106 20.1164 13.8476 20.1759 12.8875L20.1779 12.7955L20.1746 12.7832L20.1722 12.6454C20.1488 11.2885 19.0774 10.2006 17.7633 10.201L17.5806 10.2038L16.5802 10.2699L16.5387 9.31084C16.432 6.84367 14.4526 4.8818 12.0504 4.88179C11.0642 4.8788 10.1054 5.2152 9.32423 5.83863C8.66352 6.36465 8.15715 7.06726 7.85838 7.86826L7.77503 8.11143L7.60291 8.66116L7.05131 8.75085C5.25 9.04374 3.90799 10.6054 3.82252 12.4709L3.81819 12.6896C3.81819 13.7506 4.35132 14.7121 5.21119 15.2564C5.6395 15.5275 5.77434 16.1067 5.51236 16.5499C5.25038 16.9932 4.69079 17.1328 4.26248 16.8616C2.92893 16.0174 2.07651 14.5481 2.00491 12.9135L2 12.6661C1.99701 10.0163 3.71391 7.72836 6.1324 7.03446L6.23335 7.00637C6.62708 6.04353 7.23134 5.19527 8.00087 4.52589L8.2148 4.34782C9.31481 3.46997 10.6661 2.99586 12.0531 3.00003Z" fill="#555555"/>
</svg>
