<svg width="24" height="24" viewBox="0 0 24 24" fill="none" xmlns="http://www.w3.org/2000/svg">
<path fill-rule="evenodd" clip-rule="evenodd" d="M4 3C4.55228 3 5 3.44772 5 4V19H20C20.5523 19 21 19.4477 21 20C21 20.5523 20.5523 21 20 21H4C3.44772 21 3 20.5523 3 20V4C3 3.44772 3.44772 3 4 3ZM20.0315 6.00049C20.2731 5.9927 20.517 6.0832 20.7062 6.27366C20.866 6.43464 20.9611 6.64117 20.9903 6.85626L20.996 6.916L21 7V11C21 11.5523 20.5523 12 20 12C19.4477 12 19 11.5523 19 11V9.646L14.3513 14.8748C14.0228 15.2442 13.4923 15.2884 13.1158 14.9963L13.0252 14.9162L11.5719 13.4629L8.61311 16.6975C8.2511 17.0933 7.65615 17.1018 7.28425 16.7166C6.91236 16.3313 6.90434 15.6982 7.26635 15.3025L10.8692 11.3638C11.2268 10.9729 11.8127 10.959 12.1862 11.3326L13.6298 12.7763L17.876 8H16C15.4872 8 15.0645 7.61396 15.0067 7.11662L15 7C15 6.44772 15.4477 6 16 6L20.0315 6.00049Z" fill="#555555"/>
</svg>
