<svg width="24" height="24" viewBox="0 0 24 24" fill="none" xmlns="http://www.w3.org/2000/svg">
<path fill-rule="evenodd" clip-rule="evenodd" d="M12 4C12.5523 4 13 4.44772 13 5V10.999L19 11C19.5128 11 19.9355 11.386 19.9933 11.8834L20 12C20 12.5523 19.5523 13 19 13H13V19C13 19.5128 12.614 19.9355 12.1166 19.9933L12 20C11.4477 20 11 19.5523 11 19V13H5C4.48716 13 4.06449 12.614 4.00673 12.1166L4 12C4 11.4477 4.44772 11 5 11H11V5C11 4.48716 11.386 4.06449 11.8834 4.00673L12 4Z" fill="#555555"/>
</svg>
