<svg width="24" height="24" viewBox="0 0 24 24" fill="none" xmlns="http://www.w3.org/2000/svg">
<path fill-rule="evenodd" clip-rule="evenodd" d="M4 15.0081C4.51284 15.0081 4.93551 15.3941 4.99327 15.8915L5 16.0081V17.9877C5 18.5087 5.38572 18.935 5.87912 18.9932L5.99476 19H8C8.55228 19 9 19.4477 9 20C9 20.5128 8.61396 20.9355 8.11662 20.9933L8 21H5.99476C4.39798 21 3.09604 19.7442 3.00508 18.1645L3 17.9877V16.0081C3 15.4558 3.44772 15.0081 4 15.0081ZM20 14.9718C20.5128 14.9718 20.9355 15.3578 20.9933 15.8552L21 15.9718V17.9716C21 19.5676 19.7507 20.8714 18.1762 20.9625L18 20.9676H16.0004C15.4481 20.9676 15.0004 20.5199 15.0004 19.9676C15.0004 19.4548 15.3864 19.0321 15.8837 18.9743L16.0004 18.9676H18C18.5133 18.9676 18.9356 18.5827 18.9933 18.0877L19 17.9716V15.9718C19 15.4195 19.4477 14.9718 20 14.9718ZM10 13C10.5523 13 11 13.4477 11 14V16C11 16.5523 10.5523 17 10 17H8C7.44772 17 7 16.5523 7 16V14C7 13.4477 7.44772 13 8 13H10ZM16 13C16.5523 13 17 13.4477 17 14V16C17 16.5523 16.5523 17 16 17H14C13.4477 17 13 16.5523 13 16V14C13 13.4477 13.4477 13 14 13H16ZM9 7C10.1046 7 11 7.89543 11 9C11 10.1046 10.1046 11 9 11C7.89543 11 7 10.1046 7 9C7 7.89543 7.89543 7 9 7ZM16 7C16.5523 7 17 7.44772 17 8V10C17 10.5523 16.5523 11 16 11H14C13.4477 11 13 10.5523 13 10V8C13 7.44772 13.4477 7 14 7H16ZM17.9912 3C19.5926 3 20.9033 4.24782 20.9949 5.82328L21 5.99963V8C21 8.55228 20.5523 9 20 9C19.4872 9 19.0645 8.61396 19.0067 8.11662L19 8V5.99963C19 5.48794 18.6115 5.0646 18.1091 5.00674L17.9912 5H16C15.4477 5 15 4.55228 15 4C15 3.48716 15.386 3.06449 15.8834 3.00673L16 3H17.9912ZM8 3C8.55228 3 9 3.44772 9 4C9 4.55228 8.55228 5 8 5H5.99738C5.44535 5 5 5.44298 5 5.98673V7.9919C5 8.54418 4.55228 8.9919 4 8.9919C3.44772 8.9919 3 8.54418 3 7.9919V5.98673C3 4.33601 4.34316 3 5.99738 3H8Z" fill="#555555"/>
</svg>
