<svg width="24" height="24" viewBox="0 0 24 24" fill="none" xmlns="http://www.w3.org/2000/svg">
<path fill-rule="evenodd" clip-rule="evenodd" d="M12 4C16.4183 4 20 7.58172 20 12C20 16.4183 16.4183 20 12 20C7.58172 20 4 16.4183 4 12C4 7.58172 7.58172 4 12 4ZM12 16C11.4477 16 11 16.4477 11 17C11 17.5523 11.4477 18 12 18C12.5523 18 13 17.5523 13 17C13 16.4477 12.5523 16 12 16ZM12 6C9.79086 6 8 7.79086 8 10C8 10.5523 8.44772 11 9 11C9.55228 11 10 10.5523 10 10C10 8.89543 10.8954 8 12 8C13.1046 8 14 8.89543 14 10C14 11.0544 13.1841 11.9182 12.1493 11.9945L12 12C11.4477 12 11 12.4477 11 13V14.0059C11 14.5582 11.4477 15.0059 12 15.0059C12.5523 15.0059 13 14.5582 13 14.0059L13.0008 13.8738C14.7256 13.4295 16 11.8636 16 10C16 7.79086 14.2091 6 12 6Z" fill="#555555"/>
</svg>
