<svg width="24" height="24" viewBox="0 0 24 24" fill="none" xmlns="http://www.w3.org/2000/svg">
<path fill-rule="evenodd" clip-rule="evenodd" d="M18.8006 5C19.0767 5 19.3006 5.22386 19.3006 5.5C19.3006 5.63182 19.2485 5.75831 19.1557 5.85195L17.027 8L19.1557 10.1481C19.3501 10.3442 19.3487 10.6608 19.1525 10.8552C19.0589 10.9479 18.9324 11 18.8006 11H12.963L12.9944 16.0503C15.9636 16.344 19 17.8968 19 20.0356C19 20.5676 18.5687 20.9988 18.0368 20.9988H5.99478C5.44538 20.9988 5 20.5534 5 20.004C5 17.9072 8.07318 16.3304 11.0485 16.046L11.018 11H11V5H18.8006Z" fill="#555555"/>
</svg>
