<svg width="24" height="24" viewBox="0 0 24 24" fill="none" xmlns="http://www.w3.org/2000/svg">
<path fill-rule="evenodd" clip-rule="evenodd" d="M20 11C20.5523 11 21 11.4477 21 12C21 16.9706 16.9706 21 12 21C9.73623 21 7.61705 20.157 5.99872 18.7083L6 19C6 19.5523 5.55228 20 5 20C4.44772 20 4 19.5523 4 19V16C4 15.4477 4.44772 15 5 15H8C8.55228 15 9 15.4477 9 16C9 16.5523 8.55228 17 8 17L7.10092 17.001C8.38562 18.2603 10.1287 19 12 19C15.866 19 19 15.866 19 12C19 11.4477 19.4477 11 20 11ZM12 3C14.2645 3 16.3833 3.84369 18.0008 5.29122L18 5C18 4.44772 18.4477 4 19 4C19.5523 4 20 4.44772 20 5V8C20 8.55228 19.5523 9 19 9H16C15.4477 9 15 8.55228 15 8C15 7.44772 15.4477 7 16 7L16.9008 7.00057C15.6167 5.74111 13.8729 5 12 5C8.13401 5 5 8.13401 5 12C5 12.5523 4.55228 13 4 13C3.44772 13 3 12.5523 3 12C3 7.02944 7.02944 3 12 3Z" fill="#555555"/>
</svg>
