<svg width="24" height="24" viewBox="0 0 24 24" fill="none" xmlns="http://www.w3.org/2000/svg">
<path fill-rule="evenodd" clip-rule="evenodd" d="M16 5C17.1046 5 18 5.89543 18 7V18C18 19.1046 17.1046 20 16 20H7C5.89543 20 5 19.1046 5 18V7C5 5.89543 5.89543 5 7 5H16ZM9.53558 16.4959H8C7.72386 16.4959 7.5 16.7198 7.5 16.9959C7.5 17.2721 7.72386 17.4959 8 17.4959H9.53558C9.81173 17.4959 10.0356 17.2721 10.0356 16.9959C10.0356 16.7198 9.81173 16.4959 9.53558 16.4959ZM15 13.4959H8C7.72386 13.4959 7.5 13.7198 7.5 13.9959C7.5 14.2721 7.72386 14.4959 8 14.4959H15C15.2761 14.4959 15.5 14.2721 15.5 13.9959C15.5 13.7198 15.2761 13.4959 15 13.4959ZM15 10.4959H8C7.72386 10.4959 7.5 10.7198 7.5 10.9959C7.5 11.2721 7.72386 11.4959 8 11.4959H15C15.2761 11.4959 15.5 11.2721 15.5 10.9959C15.5 10.7198 15.2761 10.4959 15 10.4959ZM15 7.49591H8C7.72386 7.49591 7.5 7.71977 7.5 7.99591C7.5 8.27205 7.72386 8.49591 8 8.49591H15C15.2761 8.49591 15.5 8.27205 15.5 7.99591C15.5 7.71977 15.2761 7.49591 15 7.49591Z" fill="#555555"/>
</svg>
