<svg width="24" height="24" viewBox="0 0 24 24" fill="none" xmlns="http://www.w3.org/2000/svg">
<path fill-rule="evenodd" clip-rule="evenodd" d="M15 10C17.7614 10 20 12.2386 20 15C20 17.7614 17.7614 20 15 20C12.2386 20 10 17.7614 10 15C10 12.2386 12.2386 10 15 10ZM14 4C15.1046 4 16 4.89543 16 6L16.0008 9.08309C15.6753 9.02845 15.341 9 15 9C14.1506 9 13.3424 9.1765 12.6102 9.49482L6 9.49591C5.72386 9.49591 5.5 9.71977 5.5 9.99591C5.5 10.2721 5.72386 10.4959 6 10.4959L11.0363 10.4956C10.4098 11.0473 9.89932 11.7277 9.54618 12.4953L6 12.4959C5.72386 12.4959 5.5 12.7198 5.5 12.9959C5.5 13.2721 5.72386 13.4959 6 13.4959L9.19024 13.4953C9.06606 13.9761 9 14.4804 9 15C9 16.5371 9.57802 17.9393 10.5286 19.0009L5 19C3.89543 19 3 18.1046 3 17V6C3 4.89543 3.89543 4 5 4H14ZM16.624 13.988C16.488 13.988 16.3653 14.0167 16.256 14.074C16.174 14.117 16.1062 14.1724 16.0527 14.2401L16.004 14.312V14.28C16.004 14.1947 15.9773 14.126 15.924 14.074C15.8707 14.022 15.7987 13.996 15.708 13.996C15.6173 13.996 15.5447 14.022 15.49 14.074C15.449 14.113 15.4234 14.1614 15.4131 14.2191L15.408 14.28V16.464C15.408 16.5467 15.4367 16.6133 15.494 16.664C15.5513 16.7147 15.6267 16.74 15.72 16.74C15.808 16.74 15.8787 16.716 15.932 16.668C15.9676 16.636 15.9913 16.5969 16.0031 16.5507L16.012 16.476V15.72C16.0707 15.8187 16.154 15.8953 16.262 15.95C16.37 16.0047 16.4907 16.032 16.624 16.032C16.7947 16.032 16.9453 15.9907 17.076 15.908C17.2067 15.8253 17.3087 15.7073 17.382 15.554C17.4553 15.4007 17.492 15.2227 17.492 15.02C17.492 14.8173 17.4553 14.638 17.382 14.482C17.3087 14.326 17.206 14.2047 17.074 14.118C16.942 14.0313 16.792 13.988 16.624 13.988ZM7.53558 15.4959H6C5.72386 15.4959 5.5 15.7198 5.5 15.9959C5.5 16.2721 5.72386 16.4959 6 16.4959H7.53558C7.81173 16.4959 8.03558 16.2721 8.03558 15.9959C8.03558 15.7198 7.81173 15.4959 7.53558 15.4959ZM13.948 13.18H12.944C12.8507 13.18 12.7787 13.2053 12.728 13.256C12.69 13.294 12.6662 13.344 12.6567 13.406L12.652 13.472V15.712C12.652 15.808 12.68 15.884 12.736 15.94C12.792 15.996 12.868 16.024 12.964 16.024C13.0573 16.024 13.1313 15.996 13.186 15.94C13.227 15.898 13.2526 15.8447 13.2629 15.7802L13.268 15.712V14.904H13.592C13.6693 14.904 13.7333 14.9193 13.784 14.95C13.8178 14.9704 13.8504 14.9995 13.8818 15.0371L13.928 15.1L14.456 15.884C14.488 15.9347 14.528 15.972 14.576 15.996C14.624 16.02 14.6733 16.032 14.724 16.032C14.804 16.032 14.874 16.008 14.934 15.96C14.994 15.912 15.024 15.8507 15.024 15.776C15.024 15.7387 15.0151 15.7007 14.9973 15.6622L14.964 15.604L14.66 15.148C14.6013 15.06 14.5407 14.9927 14.478 14.946C14.4153 14.8993 14.344 14.868 14.264 14.852C14.4827 14.8067 14.652 14.712 14.772 14.568C14.892 14.424 14.952 14.244 14.952 14.028C14.952 13.7533 14.8673 13.5433 14.698 13.398C14.5569 13.2769 14.3598 13.2062 14.1066 13.1861L13.948 13.18ZM16.448 14.448C16.5893 14.448 16.6987 14.498 16.776 14.598C16.8533 14.698 16.892 14.8387 16.892 15.02C16.892 15.1987 16.8533 15.3353 16.776 15.43C16.6987 15.5247 16.5893 15.572 16.448 15.572C16.3067 15.572 16.1973 15.5233 16.12 15.426C16.0427 15.3287 16.004 15.1907 16.004 15.012C16.004 14.8307 16.0427 14.6913 16.12 14.594C16.1973 14.4967 16.3067 14.448 16.448 14.448ZM13.856 13.656C14.0347 13.656 14.164 13.6867 14.244 13.748C14.324 13.8093 14.364 13.908 14.364 14.044C14.364 14.1773 14.324 14.2753 14.244 14.338C14.164 14.4007 14.0347 14.432 13.856 14.432H13.26V13.656H13.856ZM13 6.49591H6C5.72386 6.49591 5.5 6.71977 5.5 6.99591C5.5 7.27205 5.72386 7.49591 6 7.49591H13C13.2761 7.49591 13.5 7.27205 13.5 6.99591C13.5 6.71977 13.2761 6.49591 13 6.49591Z" fill="#555555"/>
</svg>
