<svg width="24" height="24" viewBox="0 0 24 24" fill="none" xmlns="http://www.w3.org/2000/svg">
<g clip-path="url(#clip0_568_944)">
<path fill-rule="evenodd" clip-rule="evenodd" d="M15.1869 12.303C14.634 13.0351 14.4142 13.8053 14.6245 14.6656C14.7675 15.25 15.0837 15.7241 15.557 16.089C16.5314 16.8402 17.8441 16.7898 18.7686 15.9685C19.817 15.0372 19.9212 13.8214 19.0591 12.3153H21.9808C21.9875 12.4611 21.9991 12.5955 21.9991 12.7298C22 15.2996 22.0009 17.8694 21.9983 20.4391C21.9973 21.4692 21.4743 21.998 20.4554 21.9988C17.8955 22.001 15.3356 21.9997 12.7756 21.9986C12.6557 21.9985 12.5358 21.987 12.3646 21.9781V20.8097C12.3646 20.0085 12.3621 19.2071 12.3659 18.4059C12.3672 18.1314 12.3585 17.8413 12.0429 17.7672C11.7166 17.6906 11.3612 17.6197 11.0905 17.9363C11.0548 17.9781 11.0254 18.0253 10.9907 18.0679C10.3556 18.847 9.31539 18.9279 8.59911 18.2541C7.89158 17.5884 7.87979 16.5279 8.57248 15.8609C9.26929 15.19 10.3736 15.2429 10.9619 16.0359C11.2676 16.4481 11.6342 16.4144 12.0195 16.3527C12.3128 16.3057 12.3676 16.0409 12.3672 15.7725L12.3663 14.2804L12.3669 12.303H15.1869ZM8.12164 8.55282C8.79228 9.22438 8.74358 10.2893 8.03006 10.9321C7.86715 11.0789 7.66993 11.2689 7.63788 11.4632C7.51834 12.1865 7.69899 12.3646 8.44714 12.366L11.694 12.3667V15.1396C10.0976 14.2972 8.86946 14.4137 7.9832 15.4741C7.19284 16.4197 7.18518 17.7272 7.96447 18.688C8.84789 19.7775 10.0265 19.904 11.697 19.0734V21.974C11.5745 21.9825 11.4558 21.998 11.3372 21.9981C8.7122 21.9994 6.08714 22.0019 3.46216 21.9975C2.59047 21.996 2.00649 21.4449 2.00407 20.6035C1.99641 17.9355 2.00174 15.2676 2.00274 12.5996C2.00274 12.5464 2.01131 12.4933 2.01989 12.394C2.1689 12.3855 2.31375 12.3705 2.45861 12.3702C3.45334 12.3679 4.44807 12.3721 5.4428 12.3665C5.75207 12.3646 6.1042 12.435 6.24639 12.0334C6.38325 11.6468 6.26163 11.2592 5.92389 10.9836C5.15801 10.3584 5.07551 9.34862 5.73134 8.62454C6.38642 7.90137 7.4395 7.86971 8.12164 8.55282ZM20.4365 2.0015C21.4679 2.00257 21.9972 2.52486 21.9983 3.54213C22.0011 6.10103 21.9998 8.65993 21.9991 11.2188C21.999 11.3396 21.9891 11.4602 21.9812 11.6384H18.4942C18.2045 11.6383 17.8963 11.5968 17.758 11.9477C17.6179 12.3034 17.733 12.7444 18.0245 12.9783C18.8425 13.6341 18.941 14.6633 18.2553 15.3902C17.5692 16.1175 16.5085 16.1231 15.834 15.403C15.1655 14.6891 15.2725 13.6403 16.0809 12.9838C16.3507 12.7647 16.483 12.2819 16.3494 11.9489C16.2397 11.6751 16.0205 11.6386 15.7872 11.6352L15.611 11.6356L14.5194 11.6362L12.3058 11.6361V8.83205C13.0352 9.37157 13.817 9.59828 14.6916 9.36844C15.2736 9.21545 15.7449 8.89448 16.1036 8.41747C16.8337 7.44662 16.7704 6.16091 15.9528 5.24227C15.0153 4.18903 13.8543 4.0852 12.303 4.93539V2.00059H12.7236C15.2945 2.00059 17.8656 1.99878 20.4365 2.0015ZM11.4412 2.00441C11.4805 2.00441 11.5198 2.01732 11.6045 2.03223C11.613 2.17206 11.629 2.31731 11.6293 2.46265C11.6317 3.45792 11.6279 4.45327 11.6327 5.44853C11.6342 5.75919 11.5673 6.10982 11.9685 6.25116C12.352 6.38625 12.735 6.26149 13.0146 5.92076C13.4249 5.4208 13.9554 5.19776 14.5831 5.32519C15.2196 5.45436 15.6576 5.86071 15.8637 6.48669C16.102 7.21045 15.7605 8.02207 15.0828 8.3961C14.3864 8.78047 13.5711 8.61415 13.0371 8.00391C12.9022 7.84983 12.7177 7.66993 12.5347 7.6412C11.8119 7.52793 11.6317 7.70966 11.6307 8.45457L11.6269 11.5648C11.6269 11.5919 11.6166 11.6189 11.6035 11.6842H8.83508C9.27622 11.0675 9.5383 10.4033 9.43162 9.64356C9.3242 8.8785 8.95816 8.26585 8.32658 7.82685C7.36012 7.15523 6.09563 7.24759 5.2173 8.04489C4.18868 8.97852 4.09759 10.0746 4.92884 11.697H2.03276C2.02221 11.5932 2.00242 11.4889 2.00234 11.3847C2.00053 8.74424 1.99822 6.10391 2.00217 3.4635C2.00341 2.61065 2.54464 2.00932 3.35421 2.00591C6.0498 1.99458 8.74555 2.00274 11.4412 2.00441Z" fill="#555555"/>
</g>
<defs>
<clipPath id="clip0_568_944">
<rect width="24" height="24" fill="white"/>
</clipPath>
</defs>
</svg>
