<svg width="24" height="24" viewBox="0 0 24 24" fill="none" xmlns="http://www.w3.org/2000/svg">
<path fill-rule="evenodd" clip-rule="evenodd" d="M4.03301 17.5L8.62738 17.5072C8.6483 17.6331 8.65918 17.7623 8.65918 17.8942C8.65918 19.1847 7.61619 20.2308 6.32959 20.2308L6.17009 20.2254C4.95789 20.1432 4 19.1309 4 17.8942C4 17.7598 4.0113 17.6281 4.03301 17.5ZM21.2305 16.4916C21.2813 16.6087 21.3231 16.7315 21.355 16.8594C21.6672 18.1116 20.9083 19.379 19.6599 19.6903L19.5039 19.7236C18.3078 19.9371 17.1334 19.1866 16.8342 17.9866C16.8017 17.8563 16.7808 17.7257 16.7709 17.5961L21.2305 16.4916ZM17.1349 5.08035C17.7134 5.3875 18.0027 5.9043 18.0027 6.63075C18.0027 7.35719 17.6448 7.84673 16.9291 8.09938L18.597 13.641L19.1917 13.6416C20.4419 13.6416 21.3463 14.1798 21.905 15.2564L22 15.452L16.9367 16.7632H3.16934C2.70354 16.7631 2.2822 16.4866 2 16.1013V14.7149C2 13.3704 2.79722 11.911 4.39167 10.3368C4.11435 9.93062 4.03823 9.52304 4.16407 9.1135C4.32065 8.60393 4.7485 8.30968 5.4476 8.23077L10.6655 8.34914C11.2043 8.38722 11.4737 8.73718 11.4737 9.39903C11.4737 9.62104 11.4434 9.81487 11.3827 9.98052C11.9114 10.7688 9.7404 14.7149 11.1325 14.7149H15.231C16.181 14.192 16.5082 13.4497 16.2126 12.4882C15.8003 11.1474 15.0488 9.28267 14.9565 7.23607L14.948 6.84705C14.9116 6.84672 14.8748 6.84296 14.8378 6.83551L13.4486 6.55548C13.1332 6.49192 12.929 6.18397 12.9924 5.86767C13.0557 5.55137 13.3627 5.34649 13.6781 5.41005L15.0673 5.69008C15.0985 5.69637 15.1286 5.70505 15.1575 5.71589L15.1711 5.68521C15.4885 5.07198 16.1431 4.87035 17.1349 5.08035ZM8.47638 12H5.52362C5.23443 12 5 12.2238 5 12.5C5 12.7761 5.23443 13 5.52362 13H8.47638C8.76557 13 9 12.7761 9 12.5C9 12.2238 8.76557 12 8.47638 12Z" fill="#555555"/>
</svg>
