<svg width="24" height="24" viewBox="0 0 24 24" fill="none" xmlns="http://www.w3.org/2000/svg">
<path fill-rule="evenodd" clip-rule="evenodd" d="M12 3C16.4183 3 20 6.58172 20 11C20 13.0557 19.2247 14.9302 17.9505 16.3472L20.6916 18.9713C21.0905 19.3533 21.1042 19.9863 20.7223 20.3852C20.3403 20.7841 19.7073 20.7978 19.3084 20.4159L16.4323 17.661C15.1635 18.5069 13.6393 19 12 19C7.58172 19 4 15.4183 4 11C4 6.58172 7.58172 3 12 3ZM12 5C8.68629 5 6 7.68629 6 11C6 14.3137 8.68629 17 12 17C15.3137 17 18 14.3137 18 11C18 7.68629 15.3137 5 12 5Z" fill="#555555"/>
</svg>
