<svg width="24" height="24" viewBox="0 0 24 24" fill="none" xmlns="http://www.w3.org/2000/svg">
<path fill-rule="evenodd" clip-rule="evenodd" d="M12 3C16.4183 3 20 6.58172 20 11C20 15.4183 16.4183 19 12 19C10.3607 19 8.83648 18.5069 7.5677 17.661L4.69162 20.4159C4.29273 20.7978 3.65972 20.7841 3.27774 20.3852C2.89577 19.9863 2.90949 19.3533 3.30838 18.9713L6.04953 16.3472C4.77534 14.9302 4 13.0557 4 11C4 6.58172 7.58172 3 12 3ZM12 5C8.68629 5 6 7.68629 6 11C6 14.3137 8.68629 17 12 17C15.3137 17 18 14.3137 18 11C18 7.68629 15.3137 5 12 5ZM12 11.4167C13.5564 11.4167 15.2306 12.5034 15.2306 13.9257C15.2306 14.1509 15.048 14.3335 14.8228 14.3335H9.16029C8.94252 14.3335 8.76598 14.1569 8.76598 13.9391C8.76598 12.4532 10.4387 11.4167 12 11.4167ZM12 7.66667C12.9205 7.66667 13.6667 8.41286 13.6667 9.33333C13.6667 10.2538 12.9205 11 12 11C11.0795 11 10.3333 10.2538 10.3333 9.33333C10.3333 8.41286 11.0795 7.66667 12 7.66667Z" fill="#555555"/>
</svg>
