<svg width="24" height="24" viewBox="0 0 24 24" fill="none" xmlns="http://www.w3.org/2000/svg">
<path fill-rule="evenodd" clip-rule="evenodd" d="M9.98381 3.80637C10.0354 3.82514 10.0862 3.84617 10.1359 3.86938L11.1545 4.34445C11.6904 4.59438 12.3094 4.59438 12.8453 4.34445L13.8639 3.86938C14.807 3.42949 15.9282 3.83748 16.3681 4.78064C16.3913 4.83041 16.4123 4.88117 16.4311 4.93278L16.8155 5.98895C17.0176 6.5446 17.4553 6.9823 18.011 7.18449L19.0672 7.56881C20.0451 7.92468 20.5494 9.00597 20.1936 9.98393C20.1748 10.0355 20.1538 10.0863 20.1306 10.1361L19.6555 11.1547C19.4056 11.6905 19.4056 12.3095 19.6555 12.8454L20.1306 13.864C20.5704 14.8072 20.1625 15.9283 19.2193 16.3682C19.1695 16.3914 19.1188 16.4125 19.0672 16.4312L18.011 16.8156C17.4553 17.0178 17.0176 17.4555 16.8155 18.0111L16.4311 19.0673C16.0753 20.0453 14.994 20.5496 14.016 20.1937C13.9644 20.1749 13.9136 20.1539 13.8639 20.1307L12.8453 19.6556C12.3094 19.4057 11.6904 19.4057 11.1545 19.6556L10.1359 20.1307C9.19279 20.5706 8.0716 20.1626 7.63171 19.2194C7.6085 19.1697 7.58747 19.1189 7.56869 19.0673L7.18437 18.0111C6.98218 17.4555 6.54448 17.0178 5.98883 16.8156L4.93265 16.4312C3.95469 16.0754 3.45038 14.9941 3.80624 14.0161C3.82502 13.9645 3.84605 13.9138 3.86926 13.864L4.34433 12.8454C4.59426 12.3095 4.59426 11.6905 4.34433 11.1547L3.86926 10.1361C3.42937 9.19291 3.83735 8.07172 4.78052 7.63183C4.83029 7.60862 4.88105 7.58759 4.93265 7.56881L5.98883 7.18449C6.54448 6.9823 6.98218 6.5446 7.18437 5.98895L7.56869 4.93278C7.92456 3.95481 9.00585 3.4505 9.98381 3.80637ZM11.9999 9.00003C10.3431 9.00003 8.99991 10.3432 8.99991 12C8.99991 13.6569 10.3431 15 11.9999 15C13.6568 15 14.9999 13.6569 14.9999 12C14.9999 10.3432 13.6568 9.00003 11.9999 9.00003Z" fill="#555555"/>
</svg>
