<svg width="24" height="24" viewBox="0 0 24 24" fill="none" xmlns="http://www.w3.org/2000/svg">
<path fill-rule="evenodd" clip-rule="evenodd" d="M16 5C16 4.44772 15.5523 4 15 4C14.4477 4 14 4.44772 14 5V19C14 19.9396 15.1784 20.3605 15.7737 19.6336L19.7737 14.7488C20.1236 14.3215 20.0609 13.6914 19.6336 13.3415C19.2063 12.9916 18.5762 13.0544 18.2263 13.4817L16 16.2004V5ZM8.00003 7.81131V19.002C8.00003 19.5543 8.44775 20.002 9.00003 20.002C9.55232 20.002 10 19.5543 10 19.002V5.00199C10 4.06131 8.81931 3.64103 8.22494 4.37013L4.22494 9.27687C3.87598 9.70494 3.94011 10.3348 4.36818 10.6838C4.79624 11.0328 5.42615 10.9686 5.77512 10.5406L8.00003 7.81131Z" fill="#555555"/>
</svg>
