<svg width="24" height="24" viewBox="0 0 24 24" fill="none" xmlns="http://www.w3.org/2000/svg">
<path d="M11.0489 4.627C11.3483 3.70569 12.6517 3.70569 12.9511 4.627L14.2451 8.60978C14.379 9.0218 14.763 9.30076 15.1962 9.30076H19.3839C20.3527 9.30076 20.7554 10.5404 19.9717 11.1098L16.5838 13.5713C16.2333 13.8259 16.0866 14.2773 16.2205 14.6893L17.5146 18.6721C17.8139 19.5934 16.7595 20.3595 15.9757 19.7901L12.5878 17.3286C12.2373 17.074 11.7627 17.074 11.4122 17.3286L8.02426 19.7901C7.24054 20.3595 6.18607 19.5934 6.48542 18.6721L7.7795 14.6893C7.91338 14.2773 7.76672 13.8259 7.41623 13.5713L4.02827 11.1098C3.24456 10.5404 3.64734 9.30076 4.61606 9.30076H8.8038C9.23703 9.30076 9.62099 9.0218 9.75486 8.60978L11.0489 4.627Z" fill="#555555"/>
</svg>
