<svg width="24" height="24" viewBox="0 0 24 24" fill="none" xmlns="http://www.w3.org/2000/svg">
<path fill-rule="evenodd" clip-rule="evenodd" d="M19.001 16.001C19.5533 16.001 20.001 15.5533 20.001 15.001C20.001 14.4487 19.5533 14.001 19.001 14.001L5.00098 14.001C4.0614 14.001 3.64047 15.1794 4.36742 15.7747L9.25218 19.7747C9.67948 20.1246 10.3095 20.0618 10.6594 19.6345C11.0093 19.2072 10.9466 18.5772 10.5193 18.2273L7.80056 16.001H19.001ZM16.1897 8.00101H4.99899C4.44671 8.00101 3.99899 8.44872 3.99899 9.00101C3.99899 9.55329 4.44671 10.001 4.99899 10.001H18.999C19.9397 10.001 20.36 8.82029 19.6308 8.22592L14.7241 4.22592C14.296 3.87696 13.6661 3.94108 13.3172 4.36915C12.9682 4.79722 13.0323 5.42713 13.4604 5.77609L16.1897 8.00101Z" fill="#555555"/>
</svg>
