<svg width="24" height="24" viewBox="0 0 24 24" fill="none" xmlns="http://www.w3.org/2000/svg">
<path fill-rule="evenodd" clip-rule="evenodd" d="M6.00211 5.99992C7.14119 5.99992 8.06461 5.10451 8.06461 3.99996C8.06461 2.89541 7.14119 2 6.00211 2C4.86302 2 3.9396 2.89541 3.9396 3.99996C3.9396 5.10451 4.86302 5.99992 6.00211 5.99992ZM10 9.51064C10 7.80394 7.9282 6.49991 6.00211 6.49991C4.07001 6.49991 2 7.74368 2 9.52684C2 9.78816 2.21184 10 2.47316 10H9.51064C9.78091 10 10 9.78091 10 9.51064ZM18.0021 18.4999C19.9282 18.4999 22 19.8039 22 21.5106C22 21.7809 21.7809 22 21.5106 22H14.4732C14.2118 22 14 21.7882 14 21.5268C14 19.7437 16.07 18.4999 18.0021 18.4999ZM6.43935 12.1016L6.55481 12.1679L9.55481 14.1679C10.0143 14.4743 10.1385 15.0952 9.83216 15.5547C9.54769 15.9814 8.99203 16.119 8.54617 15.8911L8.44541 15.8321L7.00011 14.87V17C7.00011 17.5128 7.38615 17.9355 7.88349 17.9933L8.00011 18H13.0001C13.5524 18 14.0001 18.4477 14.0001 19C14.0001 19.5128 13.6141 19.9355 13.1167 19.9933L13.0001 20H8.00011C6.40242 20 5.09645 18.7511 5.0052 17.1763L5.00011 17V14.871L3.55481 15.8321C3.09528 16.1384 2.47441 16.0142 2.16806 15.5547C1.88359 15.128 1.97033 14.5622 2.3521 14.2382L2.44541 14.1679L5.44541 12.1679C5.74398 11.9689 6.12292 11.9468 6.43935 12.1016ZM18.0021 14C19.1412 14 20.0646 14.8954 20.0646 16C20.0646 17.1045 19.1412 17.9999 18.0021 17.9999C16.863 17.9999 15.9396 17.1045 15.9396 16C15.9396 14.8954 16.863 14 18.0021 14ZM16 4C17.5977 4 18.9037 5.24892 18.9949 6.82373L19 7V9.129L20.4453 8.16795C20.9048 7.8616 21.5257 7.98577 21.8321 8.4453C22.1165 8.87201 22.0298 9.43783 21.648 9.76176L21.5547 9.83205L18.5547 11.8321C18.2561 12.0311 17.8772 12.0532 17.5608 11.8984L17.4453 11.8321L14.4453 9.83205C13.9858 9.5257 13.8616 8.90483 14.1679 8.4453C14.4524 8.01859 15.0081 7.88105 15.4539 8.10886L15.5547 8.16795L17 9.13V7C17 6.48716 16.614 6.06449 16.1166 6.00673L16 6H11C10.4477 6 10 5.55228 10 5C10 4.48716 10.386 4.06449 10.8834 4.00673L11 4H16Z" fill="#555555"/>
</svg>
