<svg width="24" height="24" viewBox="0 0 24 24" fill="none" xmlns="http://www.w3.org/2000/svg">
<path fill-rule="evenodd" clip-rule="evenodd" d="M12.033 3C12.3092 3 12.533 3.21191 12.533 3.47332L12.5336 4.42907C16.3176 4.68864 19.3382 7.72304 19.572 11.5108L20.5263 11.5108C20.7879 11.5108 21 11.7347 21 12.0108C21 12.287 20.7879 12.5108 20.5263 12.5108L19.5685 12.5106C19.3099 16.2736 16.3 19.2809 12.5336 19.5393L12.533 20.5267C12.533 20.7881 12.3092 21 12.033 21C11.7569 21 11.533 20.7881 11.533 20.5267L11.5331 19.5427C7.74192 19.3092 4.70482 16.2913 4.44502 12.5106L3.47374 12.5108C3.2121 12.5108 3 12.287 3 12.0108C3 11.7347 3.2121 11.5108 3.47374 11.5108L4.44156 11.5108C4.67646 7.70533 7.72421 4.66027 11.5331 4.42561L11.533 3.47332C11.533 3.21191 11.7569 3 12.033 3ZM12.0909 5.83158L12.033 5.83784C12.0098 5.83784 11.987 5.83634 11.9647 5.83345L12.0068 5.83102C8.60548 5.83102 5.8482 8.58588 5.8482 11.9842C5.8482 15.3484 8.55045 18.082 11.9046 18.1365L11.9432 18.126L12.033 18.1184C12.0767 18.1184 12.1191 18.1237 12.1595 18.1336L12.0068 18.1373C15.408 18.1373 18.1653 15.3825 18.1653 11.9842C18.1653 8.61395 15.4534 5.87657 12.0909 5.83158ZM12.0068 6.77766C14.8848 6.77766 17.2179 9.10869 17.2179 11.9842C17.2179 14.8596 14.8848 17.1907 12.0068 17.1907C9.12876 17.1907 6.79567 14.8596 6.79567 11.9842C6.79567 9.10869 9.12876 6.77766 12.0068 6.77766ZM14.4702 9.8069L11.9522 13.1612L10.4054 11.6462C10.2186 11.4632 9.91863 11.4662 9.73548 11.6528C9.55232 11.8395 9.5553 12.1392 9.74214 12.3222L11.6751 14.2154C11.8796 14.4158 12.2139 14.3904 12.3858 14.1614L15.2282 10.3749C15.3852 10.1658 15.3427 9.86908 15.1334 9.71224C14.9241 9.55539 14.6272 9.59777 14.4702 9.8069Z" fill="#555555"/>
</svg>
