<svg width="24" height="24" viewBox="0 0 24 24" fill="none" xmlns="http://www.w3.org/2000/svg">
<path fill-rule="evenodd" clip-rule="evenodd" d="M21 15C21.5128 15 21.9355 15.386 21.9933 15.8834L22 16V19.9963C22 20.5092 21.614 20.9319 21.1166 20.9896L21 20.9963H3C2.48716 20.9963 2.06449 20.6103 2.00673 20.113L2 19.9963V16C2 15.4477 2.44772 15 3 15C3.51284 15 3.93551 15.386 3.99327 15.8834L4 16V18.996H20V16C20 15.4872 20.386 15.0645 20.8834 15.0067L21 15ZM11.4706 3.21382C11.8384 2.92473 12.3574 2.92922 12.7201 3.22462L17.6315 7.22462C18.0597 7.57339 18.1242 8.20327 17.7754 8.6315L17.6901 8.72384C17.3309 9.06719 16.7638 9.09732 16.3685 8.77538L13 6.032L13 16C13 16.5523 12.5523 17 12 17L11.8834 16.9933C11.386 16.9355 11 16.5128 11 16L11 6.127L7.618 8.78618C7.1838 9.12749 6.55513 9.05219 6.21382 8.61799C5.87251 8.1838 5.94782 7.55512 6.38201 7.21382L11.4706 3.21382Z" fill="#555555"/>
</svg>
