<svg width="24" height="24" viewBox="0 0 24 24" fill="none" xmlns="http://www.w3.org/2000/svg">
<path fill-rule="evenodd" clip-rule="evenodd" d="M19 5C20.1046 5 21 5.89543 21 7V17C21 18.1046 20.1046 19 19 19H18C18 19.5523 17.5523 20 17 20H16C15.4477 20 15 19.5523 15 19H9C9 19.5523 8.55228 20 8 20H7C6.44772 20 6 19.5523 6 19H5C3.89543 19 3 18.1046 3 17V7C3 5.89543 3.89543 5 5 5H19ZM17.25 7H6.75C5.7835 7 5 7.74619 5 8.66667V15.3333C5 16.2538 5.7835 17 6.75 17H17.25C18.2165 17 19 16.2538 19 15.3333V8.66667C19 7.74619 18.2165 7 17.25 7ZM17.1429 8C17.6162 8 18 8.35817 18 8.8V15.2C18 15.6418 17.6162 16 17.1429 16H6.85714C6.38376 16 6 15.6418 6 15.2V8.8C6 8.35817 6.38376 8 6.85714 8H17.1429ZM12 9C10.3431 9 9 10.3431 9 12C9 13.6569 10.3431 15 12 15C13.6569 15 15 13.6569 15 12C15 10.3431 13.6569 9 12 9ZM16.5 12C16.2239 12 16 12.2239 16 12.5V14.5C16 14.7761 16.2239 15 16.5 15C16.7761 15 17 14.7761 17 14.5V12.5C17 12.2239 16.7761 12 16.5 12ZM9.93419 12.5715L10.8484 12.5724C10.9962 12.8691 11.2553 13.1007 11.571 13.2124L11.5717 14.1001C10.7802 13.9395 10.1471 13.3427 9.93419 12.5715ZM14.0658 12.5715C13.8659 13.2956 13.2956 13.8659 12.5715 14.0658L12.5724 13.1516C12.8228 13.0269 13.0269 12.8228 13.1516 12.5724L14.0658 12.5715ZM12 11.5714C12.2367 11.5714 12.4286 11.7633 12.4286 12C12.4286 12.2367 12.2367 12.4286 12 12.4286C11.7633 12.4286 11.5714 12.2367 11.5714 12C11.5714 11.7633 11.7633 11.5714 12 11.5714ZM11.5717 9.89995L11.571 10.7876C11.206 10.9168 10.9168 11.206 10.7876 11.571L9.89995 11.5717C10.0703 10.7319 10.7319 10.0703 11.5717 9.89995ZM12.5715 9.93419C13.3427 10.1471 13.9395 10.7802 14.1001 11.5717L13.2124 11.571C13.1007 11.2553 12.8691 10.9962 12.5724 10.8484L12.5715 9.93419Z" fill="#555555"/>
</svg>
